# This file uses meters as units for non-parametric coordinates.

mtllib cereal box.mtl
g default
v -377.823066 0.000000 685.665355
v -344.166816 0.000000 685.665355
v -377.823066 9.890724 685.665355
v -344.166816 9.890724 685.665355
v -377.823066 9.890724 646.554291
v -344.166816 9.890724 646.554291
v -377.823066 0.000000 646.554291
v -344.166816 0.000000 646.554291
vt 0.432639 1.000000
vt 0.432639 0.500000
vt 0.559083 0.500000
vt 0.559083 1.000000
vt 0.865279 0.500000
vt 0.865279 0.000000
vt 0.991723 0.000000
vt 0.991723 0.500000
vt 0.432639 0.000000
vt 0.862904 0.000000
vt 0.862904 0.500000
vt 0.432639 0.500000
vt 0.000000 0.000000
vt 0.430265 0.000000
vt 0.430265 0.500000
vt 0.000000 0.500000
vt 0.563333 0.930265
vt 0.563333 0.500000
vt 0.689777 0.500000
vt 0.689777 0.930265
vt 0.694026 0.930265
vt 0.694026 0.500000
vt 0.820470 0.500000
vt 0.820470 0.930265
vn 0.000000 0.000000 1.000000
vn 0.000000 0.000000 1.000000
vn 0.000000 0.000000 1.000000
vn 0.000000 0.000000 1.000000
vn 0.000000 1.000000 0.000000
vn 0.000000 1.000000 0.000000
vn 0.000000 1.000000 0.000000
vn 0.000000 1.000000 0.000000
vn 0.000000 0.000000 -1.000000
vn 0.000000 0.000000 -1.000000
vn 0.000000 0.000000 -1.000000
vn 0.000000 0.000000 -1.000000
vn 0.000000 -1.000000 0.000000
vn 0.000000 -1.000000 0.000000
vn 0.000000 -1.000000 0.000000
vn 0.000000 -1.000000 0.000000
vn 1.000000 0.000000 0.000000
vn 1.000000 0.000000 0.000000
vn 1.000000 0.000000 0.000000
vn 1.000000 0.000000 0.000000
vn -1.000000 0.000000 0.000000
vn -1.000000 0.000000 0.000000
vn -1.000000 0.000000 0.000000
vn -1.000000 0.000000 0.000000
s off
g Food_Box
usemtl initialShadingGroup
f 1/17/1 2/18/2 4/19/3 3/20/4
f 3/9/5 4/10/6 6/11/7 5/12/8
f 5/21/9 6/22/10 8/23/11 7/24/12
f 7/13/13 8/14/14 2/15/15 1/16/16
f 2/1/17 8/2/18 6/3/19 4/4/20
f 7/5/21 1/6/22 3/7/23 5/8/24
