# This file uses meters as units for non-parametric coordinates.

mtllib table.mtl
g default
v -416.607976 92.534920 -170.076230
v -288.758427 92.534920 -170.076230
v -416.607976 100.000000 -170.076230
v -288.758427 100.000000 -170.076230
v -416.607976 100.000000 -425.775525
v -288.758427 100.000000 -425.775525
v -416.607976 92.534920 -425.775525
v -288.758427 92.534920 -425.775525
v -316.482030 100.000000 -170.076230
v -316.482030 100.000000 -425.775525
v -316.482030 92.534920 -425.775525
v -316.482030 92.534920 -170.076230
v -388.884373 100.000000 -170.076230
v -388.884373 100.000000 -425.775525
v -388.884373 92.534920 -425.775525
v -388.884373 92.534920 -170.076230
v -416.607976 100.000000 -400.800946
v -416.607976 92.534920 -400.800946
v -388.884373 92.534920 -400.800946
v -316.482030 92.534920 -400.800946
v -288.758427 92.534920 -400.800946
v -288.758427 100.000000 -400.800946
v -316.482030 100.000000 -400.800946
v -388.884373 100.000000 -400.800946
v -416.607976 100.000000 -195.050824
v -416.607976 92.534920 -195.050824
v -388.884373 92.534920 -195.050824
v -316.482030 92.534920 -195.050824
v -288.758427 92.534920 -195.050824
v -288.758427 100.000000 -195.050824
v -316.482030 100.000000 -195.050824
v -388.884373 100.000000 -195.050824
v -409.307988 92.534920 -187.750821
v -396.184361 92.534920 -187.750821
v -396.184361 92.534920 -177.376233
v -409.307988 92.534920 -177.376233
v -309.182042 92.534920 -187.750821
v -309.182042 92.534920 -177.376233
v -296.058415 92.534920 -187.750821
v -296.058415 92.534920 -177.376233
v -409.307988 92.534920 -418.475537
v -396.184361 92.534920 -418.475537
v -396.184361 92.534920 -408.100934
v -409.307988 92.534920 -408.100934
v -309.182042 92.534920 -408.100934
v -296.058415 92.534920 -408.100934
v -309.182042 92.534920 -418.475537
v -296.058415 92.534920 -418.475537
v -409.307988 -0.000000 -187.750821
v -396.184361 -0.000000 -187.750821
v -396.184361 -0.000000 -177.376233
v -409.307988 -0.000000 -177.376233
v -309.182042 -0.000000 -187.750821
v -309.182042 -0.000000 -177.376233
v -296.058415 -0.000000 -187.750821
v -296.058415 -0.000000 -177.376233
v -409.307988 -0.000000 -418.475537
v -396.184361 -0.000000 -418.475537
v -396.184361 -0.000000 -408.100934
v -409.307988 -0.000000 -408.100934
v -309.182042 -0.000000 -408.100934
v -296.058415 -0.000000 -408.100934
v -309.182042 -0.000000 -418.475537
v -296.058415 -0.000000 -418.475537
vt 0.839014 0.724479
vt 0.839014 0.653718
vt 0.860165 0.653718
vt 0.860165 0.724479
vt 0.839013 0.070763
vt 0.860164 0.070763
vt 0.839013 0.000002
vt 0.860164 0.000002
vt 0.767335 0.072185
vt 0.761863 0.001636
vt 0.782950 -0.000000
vt 0.788422 0.070549
vt 0.812414 0.653394
vt 0.833502 0.651759
vt 0.817886 0.723943
vt 0.838973 0.722308
vt 0.976951 0.786913
vt 0.947568 0.787731
vt 0.940274 0.525652
vt 0.969657 0.524834
vt 0.841938 0.985603
vt 0.812555 0.986421
vt 0.805260 0.724342
vt 0.834643 0.723524
vt 0.434424 0.987610
vt 0.405041 0.986792
vt 0.412335 0.724713
vt 0.441718 0.725531
vt 0.403143 0.986621
vt 0.373760 0.987439
vt 0.366466 0.725360
vt 0.395849 0.724542
vt 0.036677 0.987344
vt 0.007294 0.988162
vt 0.000000 0.726083
vt 0.029383 0.725265
vt 0.837116 0.262080
vt 0.807733 0.262898
vt 0.800438 0.000819
vt 0.829821 0.000001
vt 0.976952 0.524497
vt 0.947568 0.525315
vt 0.940274 0.263236
vt 0.969657 0.262418
vt 0.976952 0.262080
vt 0.947568 0.262898
vt 0.940274 0.000819
vt 0.969657 0.000001
vt 0.032056 0.000002
vt 0.110529 0.003478
vt 0.107398 0.074169
vt 0.028925 0.070694
vt 0.315467 0.012555
vt 0.312336 0.083246
vt 0.081604 0.656554
vt 0.003131 0.653078
vt 0.393939 0.016030
vt 0.390808 0.086722
vt 0.286542 0.665630
vt 0.078473 0.727245
vt 0.000000 0.723770
vt 0.365014 0.669106
vt 0.283411 0.736322
vt 0.361883 0.739798
vt 0.033753 0.762473
vt 0.039173 0.725687
vt 0.068253 0.729971
vt 0.062834 0.766757
vt 0.555267 0.763154
vt 0.526186 0.767438
vt 0.520767 0.730652
vt 0.549848 0.726368
vt 0.469119 0.725360
vt 0.469959 0.654604
vt 0.675083 0.657037
vt 0.674244 0.727793
vt 0.448683 0.704433
vt 0.449032 0.675040
vt 0.476874 0.071690
vt 0.681998 0.074123
vt 0.695520 0.677964
vt 0.695171 0.707357
vt 0.390575 0.724428
vt 0.411502 0.703992
vt 0.391415 0.653672
vt 0.411851 0.674599
vt 0.398329 0.070758
vt 0.477713 0.000934
vt 0.682837 0.003367
vt 0.753627 0.657969
vt 0.760542 0.075055
vt 0.732700 0.678405
vt 0.752788 0.728725
vt 0.732352 0.707798
vt 0.419256 0.050321
vt 0.456437 0.050762
vt 0.456786 0.021370
vt 0.703274 0.024294
vt 0.702925 0.053686
vt 0.740106 0.054127
vt 0.399169 0.000002
vt 0.419605 0.020929
vt 0.761382 0.004299
vt 0.740454 0.024735
vt 0.443616 0.761952
vt 0.449035 0.725166
vt 0.478116 0.729450
vt 0.472697 0.766236
vt 0.516691 0.729907
vt 0.511272 0.766694
vt 0.482192 0.762410
vt 0.487611 0.725623
vt 0.978849 0.724479
vt 0.978849 0.645929
vt 1.000000 0.645929
vt 1.000000 0.724479
vt 0.978849 0.440790
vt 1.000000 0.440790
vt 0.978849 0.362241
vt 1.000000 0.362241
vt 0.978849 0.362240
vt 0.978849 0.283691
vt 1.000000 0.283691
vt 1.000000 0.362240
vt 0.978849 0.078552
vt 1.000000 0.078552
vt 0.978849 0.000002
vt 1.000000 0.000002
vt 0.757041 0.437306
vt 0.794224 0.437306
vt 0.794224 0.699487
vt 0.757041 0.699487
vt 0.900307 0.262183
vt 0.863123 0.262183
vt 0.863123 0.000002
vt 0.900306 0.000002
vt 0.863123 0.262183
vt 0.900306 0.262183
vt 0.900306 0.524364
vt 0.863123 0.524364
vt 0.900306 0.786544
vt 0.863123 0.786544
vt 0.863123 0.524364
vt 0.900306 0.524364
vt 0.901698 0.000002
vt 0.938882 0.000002
vt 0.938882 0.262183
vt 0.901698 0.262183
vt 0.938882 0.786544
vt 0.901698 0.786544
vt 0.901698 0.524364
vt 0.938882 0.524364
vt 0.938882 0.524364
vt 0.901698 0.524364
vt 0.901698 0.262183
vt 0.938882 0.262183
vt 0.757041 0.699487
vt 0.794224 0.699487
vt 0.794224 0.961667
vt 0.757041 0.961667
vn 0.000000 0.000000 1.000000
vn 0.000000 0.000000 1.000000
vn 0.000000 0.000000 1.000000
vn 0.000000 0.000000 1.000000
vn 0.000000 1.000000 0.000000
vn 0.000000 1.000000 0.000000
vn 0.000000 1.000000 0.000000
vn 0.000000 1.000000 0.000000
vn 0.000000 0.000000 -1.000000
vn 0.000000 0.000000 -1.000000
vn 0.000000 0.000000 -1.000000
vn 0.000000 0.000000 -1.000000
vn 0.000000 -1.000000 0.000000
vn 0.000000 -1.000000 0.000000
vn 0.000000 -1.000000 0.000000
vn 0.000000 -1.000000 0.000000
vn 1.000000 0.000000 0.000000
vn 1.000000 0.000000 0.000000
vn 1.000000 0.000000 0.000000
vn 1.000000 0.000000 0.000000
vn -1.000000 0.000000 0.000000
vn -1.000000 0.000000 0.000000
vn -1.000000 0.000000 0.000000
vn -1.000000 0.000000 0.000000
vn 0.000000 1.000000 0.000000
vn 0.000000 1.000000 0.000000
vn 0.000000 1.000000 0.000000
vn 0.000000 1.000000 0.000000
vn 0.000000 0.000000 -1.000000
vn 0.000000 0.000000 -1.000000
vn 0.000000 0.000000 -1.000000
vn 0.000000 0.000000 -1.000000
vn 0.000000 -1.000000 0.000000
vn 0.000000 -1.000000 0.000000
vn 0.000000 -1.000000 0.000000
vn 0.000000 -1.000000 0.000000
vn 0.000000 0.000000 1.000000
vn 0.000000 0.000000 1.000000
vn 0.000000 0.000000 1.000000
vn 0.000000 0.000000 1.000000
vn 0.000000 -1.000000 0.000000
vn 0.000000 -1.000000 0.000000
vn 0.000000 -1.000000 0.000000
vn 0.000000 -1.000000 0.000000
vn -1.000000 0.000000 0.000000
vn -1.000000 0.000000 0.000000
vn -1.000000 0.000000 0.000000
vn -1.000000 0.000000 0.000000
vn 0.000000 -1.000000 0.000000
vn 0.000000 -1.000000 0.000000
vn 0.000000 -1.000000 0.000000
vn 0.000000 -1.000000 0.000000
vn 0.000000 -1.000000 0.000000
vn 0.000000 -1.000000 0.000000
vn 0.000000 -1.000000 0.000000
vn 0.000000 -1.000000 0.000000
vn 0.000000 -1.000000 0.000000
vn 0.000000 -1.000000 0.000000
vn 0.000000 -1.000000 0.000000
vn 0.000000 -1.000000 0.000000
vn 1.000000 0.000000 0.000000
vn 1.000000 0.000000 0.000000
vn 1.000000 0.000000 0.000000
vn 1.000000 0.000000 0.000000
vn 0.000000 1.000000 0.000000
vn 0.000000 1.000000 0.000000
vn 0.000000 1.000000 0.000000
vn 0.000000 1.000000 0.000000
vn 0.000000 1.000000 0.000000
vn 0.000000 1.000000 0.000000
vn 0.000000 1.000000 0.000000
vn 0.000000 1.000000 0.000000
vn 0.000000 -1.000000 0.000000
vn 0.000000 -1.000000 0.000000
vn 0.000000 -1.000000 0.000000
vn 0.000000 -1.000000 0.000000
vn 0.000000 -1.000000 0.000000
vn 0.000000 -1.000000 0.000000
vn 0.000000 -1.000000 0.000000
vn 0.000000 -1.000000 0.000000
vn 0.000000 -1.000000 0.000000
vn 0.000000 -1.000000 0.000000
vn 0.000000 -1.000000 0.000000
vn 0.000000 -1.000000 0.000000
vn 0.000000 -1.000000 0.000000
vn 0.000000 -1.000000 0.000000
vn 0.000000 -1.000000 0.000000
vn 0.000000 -1.000000 0.000000
vn 0.000000 -1.000000 0.000000
vn 0.000000 -1.000000 0.000000
vn 0.000000 -1.000000 0.000000
vn 0.000000 -1.000000 0.000000
vn 0.000000 -1.000000 0.000000
vn 0.000000 -1.000000 0.000000
vn 0.000000 -1.000000 0.000000
vn 0.000000 -1.000000 0.000000
vn 0.000000 0.000000 -1.000000
vn 0.000000 0.000000 -1.000000
vn 0.000000 0.000000 -1.000000
vn 0.000000 0.000000 -1.000000
vn 1.000000 0.000000 0.000000
vn 1.000000 0.000000 0.000000
vn 1.000000 0.000000 0.000000
vn 1.000000 0.000000 0.000000
vn 0.000000 0.000000 1.000000
vn 0.000000 0.000000 1.000000
vn 0.000000 0.000000 1.000000
vn 0.000000 0.000000 1.000000
vn -1.000000 0.000000 0.000000
vn -1.000000 0.000000 0.000000
vn -1.000000 0.000000 0.000000
vn -1.000000 0.000000 0.000000
vn -1.000000 0.000000 0.000000
vn -1.000000 0.000000 0.000000
vn -1.000000 0.000000 0.000000
vn -1.000000 0.000000 0.000000
vn 0.000000 0.000000 -1.000000
vn 0.000000 0.000000 -1.000000
vn 0.000000 0.000000 -1.000000
vn 0.000000 0.000000 -1.000000
vn 1.000000 0.000000 0.000000
vn 1.000000 0.000000 0.000000
vn 1.000000 0.000000 0.000000
vn 1.000000 0.000000 0.000000
vn 0.000000 0.000000 1.000000
vn 0.000000 0.000000 1.000000
vn 0.000000 0.000000 1.000000
vn 0.000000 0.000000 1.000000
vn 0.000000 0.000000 -1.000000
vn 0.000000 0.000000 -1.000000
vn 0.000000 0.000000 -1.000000
vn 0.000000 0.000000 -1.000000
vn 1.000000 0.000000 0.000000
vn 1.000000 0.000000 0.000000
vn 1.000000 0.000000 0.000000
vn 1.000000 0.000000 0.000000
vn 0.000000 0.000000 1.000000
vn 0.000000 0.000000 1.000000
vn 0.000000 0.000000 1.000000
vn 0.000000 0.000000 1.000000
vn -1.000000 0.000000 0.000000
vn -1.000000 0.000000 0.000000
vn -1.000000 0.000000 0.000000
vn -1.000000 0.000000 0.000000
vn 0.000000 0.000000 1.000000
vn 0.000000 0.000000 1.000000
vn 0.000000 0.000000 1.000000
vn 0.000000 0.000000 1.000000
vn -1.000000 0.000000 0.000000
vn -1.000000 0.000000 0.000000
vn -1.000000 0.000000 0.000000
vn -1.000000 0.000000 0.000000
vn 0.000000 0.000000 -1.000000
vn 0.000000 0.000000 -1.000000
vn 0.000000 0.000000 -1.000000
vn 0.000000 0.000000 -1.000000
vn 1.000000 0.000000 0.000000
vn 1.000000 0.000000 0.000000
vn 1.000000 0.000000 0.000000
vn 1.000000 0.000000 0.000000
s 1
g Table
usemtl initialShadingGroup
f 1/113/1 16/114/2 13/115/3 3/116/4
s 2
f 3/49/5 13/50/6 32/51/7 25/52/8
s 3
f 5/121/9 14/122/10 15/123/11 7/124/12
s off
f 49/65/13 50/66/14 51/67/15 52/68/16
s 4
f 2/1/17 29/2/18 30/3/19 4/4/20
s 5
f 26/9/21 1/10/22 3/11/23 25/12/24
s 2
f 9/53/25 4/57/26 30/58/27 31/54/28
s 3
f 11/126/29 10/125/30 6/127/31 8/128/32
s off
f 54/69/33 53/70/34 55/71/35 56/72/36
s 1
f 9/118/37 12/117/38 2/119/39 4/120/40
s 2
f 13/50/6 9/53/25 31/54/28 32/51/7
s 3
f 15/123/11 14/122/10 10/125/30 11/126/29
s 7
f 16/73/41 27/74/42 28/75/43 12/76/44
s 1
f 13/115/3 16/114/2 12/117/38 9/118/37
s 5
f 7/15/45 18/13/46 17/14/47 5/16/48
s off
f 57/105/49 58/106/50 59/107/51 60/108/52
s 7
f 20/80/53 19/79/54 15/88/55 11/89/56
s off
f 62/109/57 61/110/58 63/111/59 64/112/60
s 4
f 22/6/61 21/5/62 8/7/63 6/8/64
s 2
f 23/59/65 22/62/66 6/64/67 10/63/68
f 24/55/69 23/59/65 10/63/68 14/60/70
f 17/56/71 24/55/69 14/60/70 5/61/72
s 5
f 18/13/46 26/9/21 25/12/24 17/14/47
s 7
f 18/87/73 19/79/54 27/74/42 26/85/74
f 28/75/43 27/74/42 19/79/54 20/80/53
f 29/90/75 28/75/43 20/80/53 21/91/76
s 4
f 30/3/19 29/2/18 21/5/62 22/6/61
s 2
f 31/54/28 30/58/27 22/62/66 23/59/65
f 32/51/7 31/54/28 23/59/65 24/55/69
f 25/52/8 32/51/7 24/55/69 17/56/71
s 7
f 26/85/74 27/74/42 34/78/77 33/86/78
f 27/74/42 16/73/41 35/77/79 34/78/77
f 16/73/41 1/83/80 36/84/81 35/77/79
f 1/83/80 26/85/74 33/86/78 36/84/81
f 12/76/44 28/75/43 37/81/82 38/82/83
f 28/75/43 29/90/75 39/92/84 37/81/82
f 29/90/75 2/93/85 40/94/86 39/92/84
f 2/93/85 12/76/44 38/82/83 40/94/86
f 7/101/87 15/88/55 42/97/88 41/102/89
f 15/88/55 19/79/54 43/96/90 42/97/88
f 19/79/54 18/87/73 44/95/91 43/96/90
f 18/87/73 7/101/87 41/102/89 44/95/91
f 21/91/76 20/80/53 45/99/92 46/100/93
f 20/80/53 11/89/56 47/98/94 45/99/92
f 11/89/56 8/103/95 48/104/96 47/98/94
f 8/103/95 21/91/76 46/100/93 48/104/96
s off
f 33/129/97 34/130/98 50/131/99 49/132/100
f 34/17/101 35/18/102 51/19/103 50/20/104
f 35/133/105 36/134/106 52/135/107 51/136/108
f 36/21/109 33/22/110 49/23/111 52/24/112
f 38/25/113 37/26/114 53/27/115 54/28/116
f 37/137/117 39/138/118 55/139/119 53/140/120
f 39/29/121 40/30/122 56/31/123 55/32/124
f 40/141/125 38/142/126 54/143/127 56/144/128
f 41/145/129 42/146/130 58/147/131 57/148/132
f 42/33/133 43/34/134 59/35/135 58/36/136
f 43/149/137 44/150/138 60/151/139 59/152/140
f 44/37/141 41/38/142 57/39/143 60/40/144
f 46/153/145 45/154/146 61/155/147 62/156/148
f 45/41/149 47/42/150 63/43/151 61/44/152
f 47/157/153 48/158/154 64/159/155 63/160/156
f 48/45/157 46/46/158 62/47/159 64/48/160
