# This file uses meters as units for non-parametric coordinates.

mtllib chips.mtl
g default
v -345.608957 0.000000 735.684719
v -324.847469 0.000000 735.684719
v -345.608957 9.816227 735.684719
v -324.847469 9.816227 735.684719
v -345.608957 9.816227 710.287200
v -324.847469 9.816227 710.287200
v -345.608957 0.000000 710.287200
v -324.847469 0.000000 710.287200
v -322.360857 4.417063 737.368538
v -348.095533 4.417063 737.368538
v -322.360857 5.399156 737.368538
v -348.095533 5.399156 737.368538
v -322.360857 5.399158 708.603662
v -348.095533 5.399158 708.603662
v -322.360857 4.417066 708.603662
v -348.095533 4.417066 708.603662
v -325.176548 4.741250 739.646994
v -345.279843 4.741250 739.646994
v -325.176548 5.074970 739.646994
v -345.279843 5.074970 739.646994
v -325.176548 5.074971 706.324925
v -345.279843 5.074971 706.324925
v -325.176548 4.741251 706.324925
v -345.279843 4.741251 706.324925
v -348.095533 3.291599 737.368538
v -348.095533 3.206081 737.368538
v -347.560127 1.925423 737.005888
v -347.257732 2.453811 737.368538
v -348.095533 3.291599 708.603662
v -347.257732 2.453811 708.603662
v -347.560127 1.925423 708.966101
v -348.095533 3.206081 708.603662
v -322.360857 3.291599 737.368538
v -323.198658 2.453811 737.368538
v -322.896369 1.925420 737.005888
v -322.360857 3.206080 737.368538
v -322.360857 3.435341 708.603662
v -322.360857 3.206080 708.603662
v -322.896369 1.925420 708.966101
v -323.198658 2.453811 708.603662
v -348.095533 6.524627 737.368538
v -347.257732 7.362414 737.368538
v -347.560127 7.890803 737.005888
v -348.095533 6.610145 737.368538
v -348.095533 6.380885 708.603662
v -348.095533 6.610145 708.603662
v -347.560127 7.890803 708.966101
v -347.257732 7.362414 708.603662
v -322.360857 6.524627 737.368538
v -322.360857 6.610146 737.368538
v -322.896369 7.890806 737.005888
v -323.198658 7.362414 737.368538
v -322.360857 6.524627 708.603662
v -323.198658 7.362414 708.603662
v -322.896369 7.890806 708.966101
v -322.360857 6.610146 708.603662
v -345.608957 -0.492617 730.605216
v -347.560127 1.925423 731.397930
v -349.024166 3.206081 731.615563
v -349.024166 6.610145 731.615562
v -347.560127 9.762689 731.397930
v -345.608957 12.245578 730.605216
v -324.847469 12.245578 730.605216
v -322.896369 9.762691 731.397930
v -321.432225 6.610146 731.615563
v -321.432225 3.206080 731.615562
v -322.896369 1.925420 731.397930
v -324.847469 -0.492617 730.605216
v -345.608957 -0.492617 715.607763
v -347.560127 1.925423 714.920808
v -349.024166 3.206081 714.732392
v -349.024166 6.610145 714.732391
v -347.560127 9.762689 714.920808
v -345.608957 12.245579 715.607763
v -324.847469 12.245579 715.607763
v -322.896369 9.762691 714.920808
v -321.432225 6.610146 714.732392
v -321.432225 3.206080 714.732391
v -322.896369 1.925420 714.920808
v -324.847469 -0.492617 715.607763
vt 0.076171 0.501892
vt 0.081987 0.501892
vt 0.081987 0.501892
vt 0.081987 0.501892
vt 0.081987 0.501892
vt 0.081987 0.501892
vt 0.081987 0.501892
vt 0.076171 0.501892
vt 0.076171 0.501892
vt 0.076171 0.501892
vt 0.076171 0.501892
vt 0.076171 0.501892
vt 0.349943 0.107696
vt 0.291232 0.107696
vt 0.291232 0.001992
vt 0.349943 0.001992
vt 0.349943 0.398885
vt 0.291232 0.398885
vt 0.269145 0.110946
vt 0.269145 0.008243
vt 0.404316 0.110946
vt 0.372031 0.008243
vt 0.291232 0.498108
vt 0.349943 0.498108
vt 0.269145 0.395132
vt 0.404316 0.395132
vt 0.227440 0.122794
vt 0.235936 0.031029
vt 0.447139 0.122794
vt 0.405240 0.031029
vt 0.269145 0.491854
vt 0.372031 0.491854
vt 0.227440 0.381459
vt 0.447139 0.381459
vt 0.235936 0.469067
vt 0.405240 0.469067
vt 0.065681 0.498108
vt 0.065681 0.392404
vt 0.124392 0.392404
vt 0.124392 0.498108
vt 0.043593 0.389155
vt 0.043593 0.491857
vt 0.065681 0.101215
vt 0.124392 0.101215
vt 0.178764 0.389155
vt 0.146479 0.491857
vt 0.043593 0.104969
vt 0.001888 0.377307
vt 0.010384 0.469072
vt 0.065681 0.001992
vt 0.124392 0.001992
vt 0.178764 0.104969
vt 0.221588 0.377307
vt 0.179688 0.469072
vt 0.043593 0.008247
vt 0.001888 0.118641
vt 0.146479 0.008247
vt 0.221588 0.118641
vt 0.010384 0.031033
vt 0.179688 0.031033
vt 0.093617 0.503367
vt 0.093617 0.501892
vt 0.093617 0.560603
vt 0.093617 0.559128
vt 0.093617 0.539716
vt 0.093617 0.522778
vt 0.087802 0.559128
vt 0.087802 0.560603
vt 0.087802 0.501892
vt 0.087802 0.503367
vt 0.087802 0.522778
vt 0.087802 0.539716
vt 0.488307 0.377307
vt 0.846386 0.377307
vt 0.846386 0.469072
vt 0.488307 0.469072
vt 0.488307 0.118641
vt 0.846386 0.118641
vt 0.459870 0.498108
vt 0.454654 0.491857
vt 0.880037 0.491857
vt 0.874824 0.498108
vt 0.488307 0.031033
vt 0.846386 0.031033
vt 0.454654 0.008247
vt 0.459870 0.001992
vt 0.874824 0.001992
vt 0.880037 0.008247
vt 0.554209 0.530928
vt 0.912288 0.530928
vt 0.912288 0.622693
vt 0.554209 0.622693
vt 0.520556 0.508143
vt 0.525772 0.501892
vt 0.940726 0.501892
vt 0.945940 0.508143
vt 0.912288 0.881359
vt 0.554209 0.881359
vt 0.912288 0.968967
vt 0.554209 0.968967
vt 0.525772 0.998008
vt 0.520556 0.991753
vt 0.945940 0.991753
vt 0.940726 0.998008
vt 0.429937 0.945745
vt 0.429937 0.501892
vt 0.469234 0.550455
vt 0.469234 0.897182
vt 0.424121 0.501892
vt 0.424121 0.945745
vt 0.384824 0.897182
vt 0.384824 0.550455
vt 0.339707 0.945745
vt 0.339707 0.501892
vt 0.379009 0.550455
vt 0.379009 0.897182
vt 0.333892 0.501892
vt 0.333892 0.945745
vt 0.294590 0.897182
vt 0.294590 0.550455
vt 0.503394 0.897182
vt 0.503394 0.550455
vt 0.509150 0.550455
vt 0.509150 0.897182
vt 0.497803 0.501892
vt 0.514741 0.501892
vt 0.514741 0.945745
vt 0.497803 0.945745
vt 0.480640 0.897182
vt 0.480640 0.550455
vt 0.486396 0.550455
vt 0.486396 0.897182
vt 0.475049 0.501892
vt 0.491987 0.501892
vt 0.491987 0.945745
vt 0.475049 0.945745
vt 0.269363 0.945745
vt 0.254914 0.931295
vt 0.254914 0.516341
vt 0.269363 0.501892
vt 0.288774 0.501892
vt 0.288774 0.945745
vt 0.267888 0.945745
vt 0.245800 0.936511
vt 0.245800 0.511128
vt 0.267888 0.501892
vt 0.213943 0.501892
vt 0.230872 0.516341
vt 0.230872 0.931295
vt 0.216422 0.945745
vt 0.197011 0.945745
vt 0.197011 0.501892
vt 0.217897 0.501892
vt 0.239985 0.511128
vt 0.239985 0.936511
vt 0.217897 0.945745
vt 0.174264 0.945745
vt 0.157335 0.931295
vt 0.157335 0.516341
vt 0.171785 0.501892
vt 0.191196 0.501892
vt 0.191196 0.945745
vt 0.170310 0.945745
vt 0.148222 0.936511
vt 0.148222 0.511128
vt 0.170310 0.501892
vt 0.118843 0.501892
vt 0.133293 0.516341
vt 0.133293 0.931295
vt 0.118843 0.945745
vt 0.099432 0.945745
vt 0.099432 0.501892
vt 0.120318 0.501892
vt 0.142406 0.511128
vt 0.142406 0.936511
vt 0.120318 0.945745
vn -0.770527 -0.637382 -0.005689
vn -0.733874 -0.679203 -0.010620
vn -0.759077 -0.649464 -0.044714
vn -0.736725 -0.675548 -0.029515
vn 0.759067 -0.649475 -0.044713
vn 0.733868 -0.679209 -0.010620
vn 0.770538 -0.637369 -0.005689
vn 0.736737 -0.675535 -0.029514
vn -0.834819 0.520236 -0.180088
vn -0.843528 0.534518 -0.052446
vn -0.771263 0.635156 -0.041597
vn -0.657250 0.704176 -0.268625
vn -0.000000 0.565805 0.824539
vn -0.000872 0.565358 0.824845
vn -0.001002 0.320275 0.947324
vn 0.001002 0.320265 0.947327
vn 0.000872 0.565359 0.824845
vn -0.000000 0.565805 0.824539
vn 0.771274 0.635143 -0.041596
vn 0.843525 0.534523 -0.052446
vn 0.834810 0.520251 -0.180087
vn 0.657263 0.704165 -0.268622
vn 0.000000 -0.565738 -0.824585
vn -0.000872 -0.565292 -0.824891
vn -0.001002 -0.320406 -0.947280
vn 0.001055 -0.325197 -0.945646
vn 0.000871 -0.565112 -0.825014
vn 0.000000 -0.565738 -0.824585
vn 0.000000 0.000000 1.000000
vn 0.000000 0.000000 1.000000
vn 0.000000 0.000000 1.000000
vn 0.000000 0.000000 1.000000
vn 0.000000 0.992928 -0.118721
vn 0.000000 0.992928 -0.118721
vn 0.000000 0.909662 -0.415349
vn 0.000000 0.909662 -0.415349
vn 0.000000 0.000000 -1.000000
vn 0.000000 0.000000 -1.000000
vn 0.000000 0.000000 -1.000000
vn 0.000000 0.000000 -1.000000
vn 0.000000 -0.995741 -0.092193
vn 0.000000 -0.995741 -0.092193
vn 0.000000 -0.999706 -0.024238
vn 0.000000 -0.999706 -0.024238
vn 0.978244 0.204452 -0.035192
vn 0.963963 -0.263844 -0.034085
vn 0.973146 -0.190215 -0.129637
vn 0.975615 0.162848 -0.147163
vn -0.973150 -0.190194 -0.129637
vn -0.963968 -0.263824 -0.034085
vn -0.978247 0.204436 -0.035192
vn -0.975618 0.162831 -0.147161
vn 0.000000 -0.990029 0.140865
vn 0.000000 -0.990029 0.140865
vn 0.000000 -0.990029 0.140865
vn 0.000000 -0.990029 0.140865
vn 0.629046 0.000000 0.777368
vn 0.629046 0.000000 0.777368
vn 0.629046 0.000000 0.777368
vn 0.629046 0.000000 0.777368
vn 0.000000 0.990029 0.140864
vn 0.000000 0.990029 0.140864
vn 0.000000 0.990029 0.140864
vn 0.000000 0.990029 0.140864
vn -0.629046 0.000000 0.777368
vn -0.629046 0.000000 0.777368
vn -0.629046 0.000000 0.777368
vn -0.629046 0.000000 0.777368
vn 0.000000 0.990031 -0.140848
vn 0.000000 0.990031 -0.140848
vn 0.000000 0.990031 -0.140848
vn 0.000000 0.990031 -0.140848
vn 0.629093 0.000000 -0.777330
vn 0.629093 0.000000 -0.777330
vn 0.629093 0.000000 -0.777330
vn 0.629093 0.000000 -0.777330
vn 0.000000 -0.990031 -0.140847
vn 0.000000 -0.990031 -0.140847
vn 0.000000 -0.990031 -0.140847
vn 0.000000 -0.990031 -0.140847
vn -0.629093 0.000000 -0.777330
vn -0.629093 0.000000 -0.777330
vn -0.629093 0.000000 -0.777330
vn -0.629093 0.000000 -0.777330
vn -0.000910 -0.001014 0.999999
vn -0.001002 -0.320276 0.947324
vn 0.001002 -0.320266 0.947327
vn 0.000910 -0.001014 0.999999
vn 0.000000 0.000000 1.000000
vn 0.000000 0.000000 1.000000
vn -0.000872 -0.565359 0.824845
vn -0.000000 -0.565805 0.824539
vn -0.000000 -0.565805 0.824539
vn 0.000872 -0.565359 0.824845
vn 0.000000 0.000000 0.000000
vn 0.000000 0.000000 0.000000
vn 0.000000 0.000000 0.000000
vn 0.000000 0.000000 0.000000
vn 0.000000 0.000000 0.000000
vn 0.000000 0.000000 0.000000
vn -1.000000 0.000000 0.000000
vn -0.000000 0.000000 0.000000
vn -0.000000 0.000000 0.000000
vn -1.000000 0.000000 0.000000
vn -1.000000 0.000000 0.000000
vn -1.000000 0.000000 0.000000
vn 0.000793 -0.000883 -0.999999
vn -0.000911 -0.001015 -0.999999
vn 0.000000 0.000000 -1.000000
vn 0.000000 0.000000 -1.000000
vn 1.000000 0.000000 0.000000
vn 0.000000 0.000000 0.000000
vn 0.000000 0.000000 0.000000
vn 1.000000 0.000000 0.000000
vn 1.000000 0.000000 0.000000
vn 1.000000 0.000000 0.000000
vn -0.000793 0.000883 -0.999999
vn -0.001055 0.325206 -0.945643
vn 0.001002 0.320396 -0.947283
vn 0.000911 0.001015 -0.999999
vn 0.000000 0.000000 -1.000000
vn 0.000000 0.000000 -1.000000
vn -0.000871 0.565112 -0.825014
vn -0.000000 0.565738 -0.824585
vn -0.000000 0.565738 -0.824585
vn 0.000871 0.565292 -0.824891
vn 0.000910 0.001014 0.999999
vn -0.000910 0.001014 0.999999
vn 0.000000 0.000000 1.000000
vn 0.000000 0.000000 1.000000
vn 0.000000 0.000000 0.000000
vn 0.000000 0.000000 0.000000
vn 0.000000 0.000000 0.000000
vn 0.000000 0.000000 0.000000
vn 0.000000 0.000000 0.000000
vn 0.000000 0.000000 0.000000
vn -0.322175 -0.358806 0.876049
vn -0.322033 -0.358647 -0.876166
vn 0.322202 -0.358835 0.876027
vn 0.285836 -0.318336 -0.903859
vn -0.322175 0.358806 0.876049
vn -0.285820 0.318312 -0.903872
vn 0.322203 0.358834 0.876027
vn 0.322057 0.358675 -0.876146
vn -0.735919 -0.676351 0.031175
vn -0.758154 -0.650353 0.047366
vn -0.732667 -0.680500 0.010869
vn -0.771010 -0.636799 0.005536
vn -0.971856 -0.191052 0.137826
vn -0.964024 -0.263537 0.034737
vn -0.978195 0.204575 0.035815
vn -0.974029 0.163574 0.156558
vn -0.831404 0.521807 0.191011
vn -0.843463 0.534456 0.054097
vn -0.771798 0.634616 0.039880
vn -0.645753 0.708334 0.285073
vn 0.000000 0.902133 0.431459
vn 0.000000 0.902133 0.431459
vn 0.000000 0.992759 0.120126
vn 0.000000 0.992759 0.120126
vn 0.645765 0.708324 0.285069
vn 0.831394 0.521822 0.191011
vn 0.843460 0.534461 0.054096
vn 0.771809 0.634603 0.039879
vn 0.974026 0.163592 0.156560
vn 0.978192 0.204590 0.035815
vn 0.971852 -0.191073 0.137825
vn 0.964018 -0.263556 0.034736
vn 0.758145 -0.650364 0.047365
vn 0.732662 -0.680506 0.010869
vn 0.771021 -0.636786 0.005536
vn 0.735931 -0.676339 0.031174
vn 0.000000 -0.999699 0.024529
vn 0.000000 -0.999699 0.024529
vn 0.000000 -0.995330 0.096528
vn 0.000000 -0.995330 0.096528
s 1
g Chip_Bag
usemtl initialShadingGroup
f 69/48/1 70/41/2 31/42/3 7/49/4
s 2
f 39/20/5 79/19/6 80/27/7 8/28/8
s 1
f 47/46/9 73/45/10 74/53/11 5/54/12
s 4
f 3/83/13 43/85/14 42/86/15 52/87/16 51/88/17 4/84/18
s 2
f 75/29/19 76/21/20 55/22/21 6/30/22
s 6
f 7/89/23 31/93/24 30/94/25 40/95/26 39/96/27 8/90/28
s off
f 18/121/29 17/122/30 19/123/31 20/124/32
s 7
f 74/73/33 75/74/34 6/75/35 5/76/36
s off
f 22/129/37 21/130/38 23/131/39 24/132/40
s 8
f 7/89/41 8/90/42 80/91/43 69/92/44
s 2
f 77/13/45 78/14/46 38/15/47 56/16/48
s 1
f 32/37/49 71/38/50 72/39/51 46/40/52
s off
f 10/105/53 9/106/54 17/107/55 18/108/56
f 9/125/57 11/126/58 19/123/59 17/122/60
f 11/109/61 12/110/62 20/111/63 19/112/64
f 12/127/65 10/128/66 18/121/67 20/124/68
f 14/113/69 13/114/70 21/115/71 22/116/72
f 13/133/73 15/134/74 23/131/75 21/130/76
f 15/117/77 16/118/78 24/119/79 23/120/80
f 16/135/81 14/136/82 22/129/83 24/132/84
s 10
f 25/137/85 28/138/86 34/139/87 33/140/88 9/141/89 10/142/90
f 28/101/86 27/102/91 1/100/92 2/99/93 35/103/94 34/104/87
s off
f 29/2/95 32/3/96 46/4/97 45/7/98 14/5/99 16/6/100
f 33/61/101 36/62/102 50/63/103 49/64/104 11/65/105 9/66/106
s 6
f 37/147/107 40/148/26 30/149/25 29/150/108 16/151/109 15/152/110
s off
f 41/67/111 44/68/112 26/69/113 25/70/114 10/71/115 12/72/116
s 11
f 45/157/117 48/158/118 54/159/119 53/160/120 13/161/121 14/162/122
f 48/79/118 47/80/123 5/76/124 6/75/125 55/81/126 54/82/119
s 4
f 49/167/127 52/168/16 42/169/15 41/170/128 12/171/129 11/172/130
s off
f 53/8/131 56/9/132 38/10/133 37/1/134 15/11/135 13/12/136
s 1
f 70/41/2 71/38/50 32/37/49 31/42/3
s 2
f 78/14/46 79/19/6 39/20/5 38/15/47
s 1
f 72/39/51 73/45/10 47/46/9 46/40/52
s 2
f 76/21/20 77/13/45 56/16/48 55/22/21
s 10
f 25/137/85 26/143/137 27/144/91 28/138/86
s 6
f 29/150/108 30/149/25 31/155/24 32/156/138
s 10
f 33/140/88 34/139/87 35/145/94 36/146/139
s 6
f 37/147/107 38/153/140 39/154/27 40/148/26
s 4
f 41/170/128 42/169/15 43/175/14 44/176/141
s 11
f 45/157/117 46/163/142 47/164/123 48/158/118
s 4
f 49/167/127 50/173/143 51/174/17 52/168/16
s 11
f 53/160/120 54/159/119 55/165/126 56/166/144
s 1
f 1/59/145 27/55/146 58/47/147 57/56/148
f 27/55/146 26/50/149 59/43/150 58/47/147
f 60/44/151 59/43/150 26/50/149 44/51/152
f 44/51/152 43/57/153 61/52/154 60/44/151
f 62/58/155 61/52/154 43/57/153 3/60/156
s 7
f 3/83/157 4/84/158 63/78/159 62/77/160
s 2
f 4/36/161 51/32/162 64/26/163 63/34/164
f 51/32/162 50/24/165 65/17/166 64/26/163
f 36/23/167 66/18/168 65/17/166 50/24/165
f 36/23/167 35/31/169 67/25/170 66/18/168
f 68/33/171 67/25/170 35/31/169 2/35/172
s 8
f 57/98/173 68/97/174 2/99/175 1/100/176
s 1
f 57/56/148 58/47/147 70/41/2 69/48/1
f 58/47/147 59/43/150 71/38/50 70/41/2
f 72/39/51 71/38/50 59/43/150 60/44/151
f 60/44/151 61/52/154 73/45/10 72/39/51
f 74/53/11 73/45/10 61/52/154 62/58/155
s 7
f 62/77/160 63/78/159 75/74/34 74/73/33
s 2
f 63/34/164 64/26/163 76/21/20 75/29/19
f 64/26/163 65/17/166 77/13/45 76/21/20
f 65/17/166 66/18/168 78/14/46 77/13/45
f 66/18/168 67/25/170 79/19/6 78/14/46
f 80/27/7 79/19/6 67/25/170 68/33/171
s 8
f 69/92/44 80/91/43 68/97/174 57/98/173
