# This file uses meters as units for non-parametric coordinates.

mtllib cardboardCutout.mtl
g default
v 5.463087 102.587090 857.617615
v 5.463087 77.589584 877.262085
v 10.235365 102.587090 857.617615
v 10.235365 77.589584 877.262085
v 5.463087 77.589584 782.615112
v 5.463087 102.587090 807.612610
v 10.235365 77.589584 782.615112
v 10.235365 102.587090 807.612610
v 5.463087 102.587090 857.617615
v 10.235365 102.587090 857.617615
v 10.235365 102.587090 807.612610
v 5.463087 102.587090 807.612610
v 5.463087 102.587082 849.277283
v 10.235365 102.587082 849.277222
v 10.235365 102.587082 815.952881
v 5.463087 102.587082 815.952881
v 5.463087 106.987633 849.277283
v 10.235365 106.987633 849.277283
v 10.235365 106.987633 815.952881
v 5.463087 106.987633 815.952881
v 5.463087 115.962646 857.815796
v 10.235365 115.962646 857.815796
v 10.235365 115.962646 807.414368
v 5.463087 115.962646 807.414368
v 5.463087 146.898407 844.015198
v 5.463087 135.500580 857.815796
v 10.235365 146.898407 844.015198
v 10.235365 135.500580 857.815735
v 10.235365 146.898407 821.214966
v 10.235365 135.500580 807.414307
v 5.463087 146.898407 821.214966
v 5.463087 135.500580 807.414368
v 5.463087 91.328346 870.568298
v 10.235365 91.328346 870.568298
v 5.463087 91.328346 789.308899
v 10.235365 91.328346 789.308899
v 10.235365 98.385536 798.460754
v 5.463087 98.385536 798.460754
v 10.235365 98.385536 865.195862
v 5.463087 98.385536 865.195862
v 10.235365 91.328346 865.195862
v 10.235365 28.769066 865.195801
v 10.235365 91.328346 798.460693
v 10.235365 54.532516 798.460754
v 5.463087 91.328346 798.460693
v 5.463087 54.532516 798.460815
v 5.463087 91.328346 865.195862
v 5.463087 28.769066 865.195862
v 5.463087 69.100479 782.615112
v 10.235365 69.100479 782.615112
v 5.463087 69.100533 798.460754
v 5.463087 69.100540 865.195862
v 5.463087 69.100540 877.262085
v 10.235365 69.100540 877.262085
v 10.235365 69.100540 865.195862
v 10.235365 69.100426 798.460754
v 5.463087 40.723019 798.460815
v 10.235365 40.723019 798.460754
v 10.235365 55.535480 865.195801
v 10.235365 55.535484 877.262085
v 5.463087 55.535484 877.262085
v 5.463087 55.535480 865.195862
v 5.463087 22.522310 860.181946
v 5.463087 27.362251 805.048218
v 10.235365 27.362251 805.048218
v 10.235365 22.522310 860.182007
v 5.463087 -0.000004 860.181946
v 5.463087 -0.000008 805.048218
v 10.235365 -0.000008 805.048218
v 10.235365 -0.000004 860.182007
v 5.463087 91.328346 828.896301
v 5.463087 69.100533 828.896301
v 5.463087 55.776012 828.896301
v 5.463087 40.088333 828.896301
v 5.463087 16.592304 829.613525
v 5.463087 -0.000008 829.613525
v 10.235365 -0.000008 829.613525
v 10.235365 16.592304 829.613525
v 10.235365 40.088333 828.896301
v 10.235365 55.776012 828.896301
v 10.235365 69.100464 828.896301
v 10.235365 91.328346 828.896301
v 5.463087 91.328346 836.333923
v 5.463087 69.100540 836.333923
v 5.463087 55.185226 836.333923
v 5.463087 40.088333 836.333923
v 5.463087 16.592308 835.616638
v 5.463087 -0.000004 835.616638
v 10.235365 -0.000004 835.616638
v 10.235365 16.592308 835.616638
v 10.235365 40.088333 836.333923
v 10.235365 55.185226 836.333923
v 10.235365 69.100494 836.333923
v 10.235365 91.328346 836.333923
v -15.471300 -0.000004 835.616638
v -15.471300 -0.000008 829.613525
v 31.169752 -0.000004 835.616638
v 31.169752 -0.000008 829.613525
v -15.471300 7.931549 835.616638
v -3.199388 16.592308 835.616638
v -15.471300 7.931549 829.613525
v -3.199388 16.592304 829.613525
v 31.169752 7.931549 829.613525
v 18.897839 16.592304 829.613525
v 31.169752 7.931549 835.616638
v 18.897839 16.592308 835.616638
v 10.235365 62.733006 782.615112
v 10.235365 54.532516 788.981323
v 5.463087 62.733006 782.615112
v 5.463087 54.532516 788.981323
v 10.235365 31.200764 871.229553
v 10.235365 40.740158 877.262085
v 5.463087 31.200764 871.229553
v 5.463087 40.740158 877.262085
vt 0.351273 1.000000
vt 0.351273 1.000000
vt 0.592171 1.000000
vt 0.592171 1.000000
vt 0.127487 0.669752
vt 0.127487 0.621711
vt 0.070724 0.621711
vt 0.127487 0.669752
vt 0.070724 0.621711
vt 1.000000 0.528185
vt 0.929276 0.621711
vt 0.929276 0.621711
vt 1.000000 0.528185
vt 0.207556 0.698354
vt 0.207556 0.698354
vt 0.207556 0.698354
vt 0.207556 0.698354
vt 0.295676 0.698354
vt 0.647767 0.698354
vt 0.735888 0.698354
vt 0.735888 0.698354
vt 0.735888 0.698354
vt 0.735888 0.698354
vt 0.647767 0.698354
vt 0.295676 0.698354
vt 0.295676 0.728310
vt 0.295676 0.728310
vt 0.647767 0.728310
vt 0.647767 0.728310
vt 0.205462 0.789407
vt 0.205462 0.789407
vt 0.737982 0.789407
vt 0.737982 0.789407
vt 0.205462 0.922410
vt 0.205462 0.922410
vt 0.737983 0.922410
vt 0.737982 0.922410
vt 0.000000 0.528185
vt 0.000000 0.528185
vt 0.832582 0.669752
vt 0.832582 0.669752
vt 0.832582 0.621711
vt 0.832582 0.470396
vt 1.000000 0.470396
vt 0.000000 0.470397
vt 0.000000 0.470397
vt 0.127487 0.470397
vt 1.000000 0.470396
vt 1.000000 0.427050
vt 1.000000 0.427050
vt 0.127487 0.621711
vt 0.127487 0.470397
vt 0.432430 0.621711
vt 0.432430 0.470396
vt 0.832582 0.621711
vt 0.832582 0.470397
vt 0.432430 0.621711
vt 0.432430 0.470397
vt 0.063738 0.212397
vt 0.063738 0.212397
vt 0.127487 0.195843
vt 0.127487 0.195843
vt 0.932737 0.383713
vt 0.932737 0.383713
vt 0.832582 0.383713
vt 0.832582 0.383713
vt 0.000000 0.378054
vt 0.127487 0.378054
vt 0.000000 0.277336
vt 0.000000 0.277336
vt 0.000000 0.378054
vt 0.432430 0.375669
vt 0.432430 0.272898
vt 0.832582 0.277219
vt 0.832582 0.277219
vt 0.432430 0.272898
vt 0.432430 0.375669
vt 0.127487 0.378054
vt 0.180462 -0.000000
vt 0.440008 -0.000000
vt 0.440008 -0.000000
vt 0.180461 -0.000000
vt 0.440008 0.112951
vt 0.180462 0.153319
vt 0.762981 0.186266
vt 0.762981 0.186266
vt 0.180461 0.153319
vt 0.440008 0.112951
vt 0.762981 -0.000000
vt 0.762981 -0.000000
vt 0.511013 0.470397
vt 0.511013 0.621711
vt 0.511013 0.379691
vt 0.511013 0.272898
vt 0.503435 0.112951
vt 0.503435 -0.000000
vt 0.503435 -0.000000
vt 0.503435 0.112951
vt 0.511013 0.272898
vt 0.511013 0.379691
vt 0.511013 0.470396
vt 0.511013 0.621711
vt 0.440008 -0.000000
vt 0.440008 0.053993
vt 0.503435 0.053993
vt 0.503435 -0.000000
vt 0.503435 0.053993
vt 0.440008 0.053993
vt 0.440008 -0.000000
vt 0.503435 -0.000000
vt 0.440008 0.112951
vt 0.503435 0.112951
vt 0.440008 0.112951
vt 0.503435 0.112951
vn 0.000000 1.000000 0.000000
vn 0.000000 1.000000 0.000000
vn 0.000000 1.000000 0.000000
vn 0.000000 1.000000 0.000000
vn -1.000000 0.000000 0.000000
vn -1.000000 0.000000 0.000000
vn -1.000000 -0.000000 0.000000
vn 0.000000 0.754684 0.656088
vn 0.000000 0.754684 0.656088
vn 0.000000 0.501860 0.864949
vn 0.000000 0.501860 0.864949
vn 0.000000 0.437998 -0.898976
vn 0.000000 0.606070 -0.795411
vn 0.000000 0.606070 -0.795411
vn 0.000000 0.437998 -0.898976
vn 0.000000 0.000000 0.000000
vn 0.000000 0.000000 0.000000
vn 0.000000 0.000000 0.000000
vn 0.000000 0.000000 0.000000
vn 0.000000 0.000000 0.000000
vn 0.995423 0.095565 0.000000
vn 0.995423 0.095565 0.000000
vn 0.000000 0.000000 0.000000
vn 0.000000 0.000000 0.000000
vn 0.000000 0.000000 0.000000
vn 0.000000 0.000000 0.000000
vn 0.000000 0.000000 0.000000
vn 0.000000 0.000000 0.000000
vn 0.000000 0.000000 0.000000
vn -0.000000 0.000000 0.000000
vn -1.000000 0.000000 0.000000
vn -1.000000 0.000000 0.000000
vn -0.000000 0.000000 0.000000
vn -0.000000 0.000000 0.000000
vn -0.000000 0.000000 0.000000
vn -0.000000 1.000000 -0.000001
vn -0.000000 1.000000 -0.000001
vn -0.000016 1.000000 -0.000001
vn -0.000000 1.000000 -0.000001
vn -0.000000 1.000000 0.000001
vn -0.000016 1.000000 0.000001
vn 0.000000 1.000000 0.000001
vn 0.000000 1.000000 0.000001
vn 0.000000 -0.000000 0.000000
vn 0.000000 -0.000000 0.000000
vn 0.999928 -0.012000 0.000000
vn 0.999928 -0.012000 0.000000
vn 0.000012 -0.000007 1.000000
vn 0.000012 -0.000007 1.000000
vn 0.000012 -0.000007 1.000000
vn 0.000012 -0.000007 1.000000
vn 1.000000 0.000000 0.000000
vn 1.000000 0.000000 0.000000
vn 1.000000 0.000000 0.000000
vn 1.000000 0.000000 0.000000
vn 0.000000 0.000000 -1.000000
vn 0.000000 0.000000 -1.000000
vn 0.000000 0.000000 -1.000000
vn 0.000000 0.000000 -1.000000
vn -1.000000 0.000000 0.000000
vn -1.000000 0.000000 0.000000
vn -1.000000 -0.000000 0.000000
vn -1.000000 -0.000000 0.000000
vn 0.000000 -0.689269 0.724505
vn 0.000000 -0.689269 0.724505
vn 0.000000 -0.689269 0.724505
vn 0.000000 -0.689269 0.724505
vn 1.000000 -0.000000 0.000000
vn 1.000000 -0.000000 0.000000
vn 0.000000 -0.689269 -0.724505
vn 0.000000 -0.689269 -0.724505
vn 0.000000 -0.689269 -0.724505
vn 0.000000 -0.689269 -0.724505
vn -1.000000 -0.000000 0.000000
vn -1.000000 -0.000000 0.000000
vn 0.000000 0.000002 1.000000
vn 0.000000 0.000002 1.000000
vn 0.000000 0.000002 1.000000
vn 0.000000 0.000002 1.000000
vn 1.000000 -0.000000 0.000000
vn 1.000000 -0.000000 0.000000
vn -0.000010 -0.000002 -1.000000
vn -0.000010 -0.000002 -1.000000
vn -0.000010 -0.000002 -1.000000
vn -0.000010 -0.000002 -1.000000
vn -1.000000 0.000000 0.000000
vn -1.000000 0.000000 0.000000
vn 0.000000 0.771034 0.636794
vn 0.000000 0.771034 0.636794
vn 0.000000 0.771034 0.636794
vn 0.000000 0.771034 0.636794
vn -0.000011 0.771036 -0.636792
vn -0.000011 0.771036 -0.636792
vn -0.000011 0.771036 -0.636792
vn -0.000011 0.771036 -0.636792
vn 0.000000 0.437998 0.898976
vn 0.000000 0.437998 0.898976
vn 0.000000 0.851764 -0.523926
vn 0.000000 0.851764 -0.523926
vn 0.000000 0.908803 -0.417225
vn 0.000000 0.908803 -0.417225
vn 1.000000 0.000000 0.000000
vn 1.000000 -0.000000 0.000000
vn 1.000000 -0.000000 0.000000
vn 1.000000 -0.000000 0.000000
vn 1.000000 -0.000000 0.000000
vn 1.000000 -0.000000 0.000000
vn 0.000000 0.000000 1.000000
vn 0.000000 0.000000 1.000000
vn 0.000000 0.000000 1.000000
vn 0.000000 0.000000 1.000000
vn -1.000000 -0.000000 0.000000
vn -1.000000 -0.000000 0.000000
vn -1.000000 -0.000000 0.000000
vn 0.000000 0.000000 -1.000000
vn 0.000000 0.000000 -1.000000
vn 0.000000 0.000000 -1.000000
vn 0.000000 0.000000 -1.000000
vn 0.000000 0.874577 0.484886
vn 0.000000 0.874577 0.484886
vn 1.000000 0.000000 0.000000
vn 1.000000 0.000000 0.000000
vn 1.000000 0.000000 0.000000
vn 1.000000 0.000000 0.000000
vn 1.000000 -0.000000 0.000000
vn 1.000000 0.000000 0.000000
vn 1.000000 0.000000 0.000000
vn 1.000000 0.000000 0.000000
vn 1.000000 -0.000000 0.000000
vn -1.000000 0.000000 0.000000
vn -1.000000 -0.000000 0.000000
vn -1.000000 0.000000 0.000000
vn -1.000000 0.000000 0.000000
vn -1.000000 -0.000000 0.000000
vn -1.000000 0.000000 0.000000
vn -1.000000 0.000000 0.000000
vn -1.000000 0.000000 0.000000
vn -1.000000 0.000000 0.000000
vn 0.000008 -0.927508 0.373802
vn 0.000008 -0.927508 0.373802
vn 0.000008 -0.927508 0.373802
vn 0.000008 -0.927508 0.373802
vn 0.000000 -1.000000 0.000000
vn 0.000000 -1.000000 0.000000
vn 0.000000 -1.000000 0.000000
vn 0.000000 -1.000000 0.000000
vn 0.000000 0.000000 -1.000000
vn 0.000000 0.000000 -1.000000
vn -1.000000 0.000000 0.000000
vn -1.000000 0.000000 0.000000
vn -1.000000 0.000000 0.000000
vn -1.000000 0.000000 0.000000
vn -1.000000 0.000000 0.000000
vn 0.000000 0.000000 1.000000
vn 0.000000 0.000000 1.000000
vn 0.000000 0.000000 1.000000
vn 0.000000 0.000000 1.000000
vn 1.000000 0.000000 0.000000
vn 1.000000 0.000000 0.000000
vn 1.000000 0.000000 0.000000
vn 1.000000 0.000000 0.000000
vn 1.000000 0.000000 0.000000
vn -1.000000 0.000000 0.000000
vn -1.000000 0.000000 0.000000
vn -1.000000 0.000000 0.000000
vn -1.000000 0.000000 0.000000
vn -0.000015 0.000000 -1.000000
vn -0.000015 0.000000 -1.000000
vn -0.000015 0.000000 -1.000000
vn -0.000015 0.000000 -1.000000
vn 1.000000 0.000000 0.000000
vn 1.000000 0.000000 0.000000
vn 1.000000 -0.000000 0.000000
vn 1.000000 -0.000000 0.000000
vn 1.000000 0.000000 0.000000
vn 0.000000 -1.000000 0.000000
vn 0.000000 -1.000000 0.000000
vn 0.000000 -1.000000 0.000000
vn 0.000000 -1.000000 0.000000
vn -1.000000 0.000000 0.000000
vn -1.000000 0.000000 0.000000
vn 0.000000 -0.442215 -0.896909
vn 0.000000 -0.442215 -0.896909
vn 0.000000 -0.442215 -0.896909
vn 0.000000 -0.442215 -0.896909
vn 1.000000 0.000000 0.000000
vn 1.000000 0.000000 0.000000
vn 0.000000 -0.625947 0.779866
vn 0.000000 -0.625946 0.779866
vn 0.000000 -0.625946 0.779866
vn 0.000000 -0.625947 0.779866
vn -1.000000 0.000000 0.000000
vn -1.000000 0.000000 0.000000
vn 0.000000 0.000000 -1.000000
vn 0.000000 0.000000 -1.000000
vn 0.000000 0.000000 -1.000000
vn 0.000000 0.000000 -1.000000
vn 1.000000 0.000000 0.000000
vn 1.000000 0.000000 0.000000
vn -0.000018 0.000000 1.000000
vn -0.000018 0.000000 1.000000
vn -0.000018 0.000000 1.000000
vn -0.000018 0.000000 1.000000
vn -1.000000 -0.000000 0.000000
vn -1.000000 -0.000000 0.000000
vn -1.000000 0.000000 0.000000
vn -1.000000 0.000000 0.000000
vn -1.000000 0.000000 0.000000
vn -1.000000 0.000000 0.000000
vn -1.000000 0.000000 0.000000
vn -1.000000 0.000000 0.000000
vn -1.000000 0.000000 0.000000
vn -1.000000 0.000000 0.000000
vn 0.000000 -1.000000 0.000000
vn 0.000000 -1.000000 0.000000
vn 0.000000 -1.000000 0.000000
vn 0.000000 -1.000000 0.000000
vn 1.000000 0.000000 0.000000
vn 1.000000 -0.000000 0.000000
vn 1.000000 0.000000 0.000000
vn 1.000000 0.000000 0.000000
vn 1.000000 0.000000 0.000000
vn 1.000000 -0.000000 0.000000
vn 1.000000 0.000000 0.000000
vn 1.000000 -0.000000 0.000000
vn 1.000000 -0.000000 0.000000
vn -1.000000 0.000000 0.000000
vn -1.000000 0.000000 0.000000
vn -1.000000 0.000000 0.000000
vn -1.000000 0.000000 0.000000
vn 1.000000 0.000000 0.000000
vn 1.000000 0.000000 0.000000
vn 1.000000 0.000000 0.000000
vn 1.000000 0.000000 0.000000
vn 0.000002 0.000000 1.000000
vn 0.000002 0.000000 1.000000
vn 0.000002 0.000000 1.000000
vn 0.000002 0.000000 1.000000
vn 0.000002 0.000000 1.000000
vn 0.000000 1.000000 -0.000001
vn 0.000000 1.000000 -0.000001
vn 0.000000 1.000000 -0.000001
vn 0.000000 1.000000 -0.000001
vn -0.000002 0.000000 -1.000000
vn -0.000002 0.000000 -1.000000
vn -0.000002 0.000000 -1.000000
vn -0.000002 0.000000 -1.000000
vn -0.000002 0.000000 -1.000000
vn 0.000000 -1.000000 0.000001
vn 0.000000 -1.000000 0.000001
vn 0.000000 1.000000 -0.000001
vn 0.000000 1.000000 -0.000001
vn 0.000000 1.000000 -0.000001
vn 0.000000 1.000000 -0.000001
vn -0.000002 0.000000 1.000000
vn -0.000002 0.000000 1.000000
vn -0.000002 0.000000 1.000000
vn -0.000002 0.000000 1.000000
vn -0.000002 0.000000 1.000000
vn 0.000000 -1.000000 0.000001
vn 0.000000 -1.000000 0.000001
vn 0.000002 0.000000 -1.000000
vn 0.000002 0.000000 -1.000000
vn 0.000002 0.000000 -1.000000
vn 0.000002 0.000000 -1.000000
vn 0.000002 0.000000 -1.000000
vn -0.576602 0.817025 -0.000000
vn -0.576602 0.817025 -0.000000
vn -0.576602 0.817025 -0.000000
vn -0.576602 0.817025 -0.000000
vn 0.576602 0.817025 -0.000000
vn 0.576602 0.817025 -0.000000
vn 0.576602 0.817025 -0.000000
vn 0.576602 0.817025 -0.000000
vn -1.000000 0.000000 0.000000
vn -1.000000 0.000000 0.000000
vn 1.000000 0.000000 0.000000
vn 1.000000 -0.000000 0.000000
vn 1.000000 -0.000000 0.000000
vn -1.000000 -0.000000 0.000000
vn -1.000000 0.000000 0.000000
vn -1.000000 0.000000 0.000000
vn 0.000000 -0.613223 -0.789910
vn 0.000000 -0.613223 -0.789910
vn 0.000000 -0.613223 -0.789910
vn 0.000000 -0.613223 -0.789910
vn 1.000000 0.000000 0.000000
vn 1.000000 0.000000 0.000000
vn 0.000000 -0.534477 0.845183
vn 0.000000 -0.534477 0.845183
vn 0.000000 -0.534477 0.845183
vn 0.000000 -0.534477 0.845183
s off
g Cardboard_Man
usemtl initialShadingGroup
f 25/1/1 27/2/2 29/3/3 31/4/4
s 1
f 40/5/5 47/6/6 33/7/7
s 2
f 39/8/8 40/5/9 33/7/10 34/9/11
s 3
f 5/10/12 35/11/13 36/12/14 7/13/15
s off
f 1/14/16 3/15/17 10/16/18 9/17/19
f 3/15/20 14/18/21 15/19/22 8/20/23 11/21/24 10/16/25
f 8/20/26 6/22/27 12/23/28 11/21/29
f 6/22/30 16/24/31 13/25/32 1/14/33 9/17/34 12/23/35
s 4
f 9/17/36 10/16/37 14/18/38 13/25/39
f 10/16/37 11/21/40 15/19/41 14/18/38
f 11/21/40 12/23/42 16/24/43 15/19/41
s off
f 12/23/44 9/17/45 13/25/46 16/24/47
f 13/25/48 14/18/49 18/26/50 17/27/51
s 5
f 14/18/52 15/19/53 19/28/54 18/26/55
s off
f 15/19/56 16/24/57 20/29/58 19/28/59
s 6
f 16/24/60 13/25/61 17/27/62 20/29/63
s off
f 17/27/64 18/26/65 22/30/66 21/31/67
s 5
f 18/26/55 19/28/54 23/32/68 22/30/69
s off
f 19/28/70 20/29/71 24/33/72 23/32/73
s 6
f 20/29/63 17/27/62 21/31/74 24/33/75
s off
f 21/31/76 22/30/77 28/34/78 26/35/79
s 5
f 22/30/69 23/32/68 30/36/80 28/34/81
s off
f 23/32/82 24/33/83 32/37/84 30/36/85
s 6
f 24/33/75 21/31/74 26/35/86 32/37/87
s off
f 25/1/88 26/35/89 28/34/90 27/2/91
f 29/3/92 30/36/93 32/37/94 31/4/95
s 2
f 34/9/11 33/7/10 2/38/96 4/39/97
s 3
f 37/40/98 38/41/99 6/22/100 8/20/101
s 7
f 37/40/102 43/42/103 36/12/104
f 43/42/103 56/43/105 50/44/106 7/13/107 36/12/104
s 8
f 53/45/108 54/46/109 4/39/110 2/38/111
s 1
f 47/6/6 52/47/112 53/45/113 2/38/114 33/7/7
s 9
f 49/48/115 50/44/116 107/49/117 109/50/118
s 3
f 36/12/14 35/11/13 38/41/99 37/40/98
s 2
f 1/14/119 40/5/9 39/8/8 3/15/120
s 7
f 34/9/121 41/51/122 39/8/123
f 54/46/124 55/52/125 41/51/122 34/9/121 4/39/126
f 39/8/123 41/51/122 94/53/127 3/15/128
f 41/51/122 55/52/125 93/54/129 94/53/127
s 1
f 35/11/130 45/55/131 38/41/132
f 49/48/133 51/56/134 45/55/131 35/11/130 5/10/135
f 1/14/136 83/57/137 47/6/6 40/5/5
f 83/57/137 84/58/138 52/47/112 47/6/6
s off
f 111/59/139 113/60/140 48/61/141 42/62/142
f 110/63/143 108/64/144 44/65/145 46/66/146
s 9
f 5/10/147 7/13/148 50/44/116 49/48/115
s 1
f 61/67/149 62/68/150 48/61/151 113/60/152 114/69/153
s 8
f 114/69/154 112/70/155 60/71/156 61/67/157
s 7
f 50/44/106 56/43/105 44/65/158 108/64/159 107/49/160
s 5
f 28/34/81 30/36/80 29/3/161 27/2/162
s 6
f 32/37/87 26/35/86 25/1/163 31/4/164
s 1
f 85/72/165 86/73/166 48/61/151 62/68/150
s off
f 44/65/167 58/74/168 57/75/169 46/66/170
s 7
f 42/62/171 91/76/172 92/77/173 59/78/174
f 93/54/129 55/52/125 59/78/174 92/77/173
f 60/71/175 59/78/174 55/52/125 54/46/124
s 8
f 61/67/157 60/71/156 54/46/109 53/45/108
s 1
f 53/45/113 52/47/112 62/68/150 61/67/149
f 52/47/112 84/58/138 85/72/165 62/68/150
s 13
f 67/79/176 88/80/177 89/81/178 70/82/179
s 1
f 48/61/151 86/73/166 87/83/180 63/84/181
s off
f 57/75/182 58/74/183 65/85/184 64/86/185
s 7
f 91/76/172 42/62/171 66/87/186 90/88/187
s off
f 42/62/188 48/61/189 63/84/190 66/87/191
s 1
f 63/84/181 87/83/180 88/80/192 67/79/193
s off
f 64/86/194 65/85/195 69/89/196 68/90/197
s 7
f 90/88/187 66/87/186 70/82/198 89/81/199
s off
f 66/87/200 63/84/201 67/79/202 70/82/203
s 1
f 45/55/131 51/56/134 72/91/204 71/92/205
f 73/93/206 72/91/204 51/56/134 46/66/207
f 46/66/207 57/75/208 74/94/209 73/93/206
f 75/95/210 74/94/209 57/75/208 64/86/211
f 76/96/212 75/95/210 64/86/211 68/90/213
s 13
f 77/97/214 76/96/215 68/90/216 69/89/217
s 7
f 65/85/218 78/98/219 77/97/220 69/89/221
f 58/74/222 79/99/223 78/98/219 65/85/218
f 80/100/224 79/99/223 58/74/222 44/65/158
f 56/43/105 81/101/225 80/100/224 44/65/158
f 82/102/226 81/101/225 56/43/105 43/42/103
s 1
f 71/92/205 72/91/204 84/58/138 83/57/137
f 85/72/165 84/58/138 72/91/204 73/93/206
f 73/93/206 74/94/209 86/73/166 85/72/165
f 87/83/180 86/73/166 74/94/209 75/95/210
s off
f 95/103/227 99/104/228 101/105/229 96/106/230
s 13
f 89/81/178 88/80/177 76/96/215 77/97/214
s off
f 103/107/231 105/108/232 97/109/233 98/110/234
s 7
f 79/99/223 91/76/172 90/88/187 78/98/219
f 92/77/173 91/76/172 79/99/223 80/100/224
f 81/101/225 93/54/129 92/77/173 80/100/224
f 94/53/127 93/54/129 81/101/225 82/102/226
s off
f 88/80/235 87/83/236 100/111/237 99/104/238 95/103/239
f 87/83/240 75/95/241 102/112/242 100/111/243
f 75/95/244 76/96/245 96/106/246 101/105/247 102/112/248
s 13
f 76/96/215 88/80/177 95/103/249 96/106/250
s off
f 78/98/251 90/88/252 106/113/253 104/114/254
f 90/88/255 89/81/256 97/109/257 105/108/258 106/113/259
s 13
f 89/81/178 77/97/214 98/110/260 97/109/261
s off
f 77/97/262 78/98/263 104/114/264 103/107/265 98/110/266
f 99/104/267 100/111/268 102/112/269 101/105/270
f 103/107/271 104/114/272 106/113/273 105/108/274
s 1
f 38/41/132 45/55/131 71/92/205 6/22/275
f 13/25/276 83/57/137 1/14/136
s 7
f 8/20/277 82/102/226 43/42/103 37/40/102
f 15/19/278 82/102/226 8/20/277
f 14/18/279 94/53/127 82/102/226 15/19/278
f 3/15/128 94/53/127 14/18/279
s 1
f 16/24/280 71/92/205 83/57/137 13/25/276
f 6/22/275 71/92/205 16/24/280
f 109/50/281 110/63/282 46/66/207 51/56/134 49/48/133
s off
f 107/49/283 108/64/284 110/63/285 109/50/286
s 7
f 112/70/287 111/59/288 42/62/171 59/78/174 60/71/175
s off
f 111/59/289 112/70/290 114/69/291 113/60/292
