# This file uses meters as units for non-parametric coordinates.

mtllib double side shelf.mtl
g default
v -2.343463 -0.000004 409.036828
v 2.343524 -0.000004 409.036828
v -2.343463 116.995220 409.036828
v 2.343524 116.995220 409.036828
v -2.343463 116.995220 288.258599
v 2.343524 116.995220 288.258599
v -2.343463 -0.000004 288.258599
v 2.343524 -0.000004 288.258599
v -2.343463 8.625099 288.258599
v -2.343463 8.625099 409.036828
v 2.343524 8.625099 409.036828
v 2.343524 8.625099 288.258599
v -37.769691 -0.000004 288.258599
v -37.769691 -0.000004 409.036828
v -37.769691 8.625099 409.036828
v -37.769691 8.625099 288.258599
v 37.598507 -0.000004 288.258599
v 37.598507 -0.000004 409.036828
v 37.598507 8.625099 288.258599
v 37.598507 8.625099 409.036828
v -2.343463 24.173958 288.258599
v -2.343463 24.173958 409.036828
v 2.343524 24.173958 409.036828
v 2.343524 24.173958 288.258599
v -2.343463 45.732651 288.258599
v -2.343463 45.732651 409.036828
v 2.343524 45.732651 409.036828
v 2.343524 45.732651 288.258599
v -2.343463 48.924751 288.258599
v -2.343463 48.924751 409.036828
v 2.343524 48.924751 409.036828
v 2.343524 48.924751 288.258599
v -2.343463 69.901196 288.258599
v -2.343463 69.901196 409.036828
v 2.343524 69.901196 409.036828
v 2.343524 69.901196 288.258599
v -2.343463 81.900034 288.258599
v -2.343463 81.900034 409.036828
v 2.343524 82.564186 409.036828
v 2.343524 82.564186 288.258599
v -2.343463 85.001165 288.258599
v -2.343463 85.001165 409.036828
v 2.343524 85.844873 409.036828
v 2.343524 85.844873 288.258599
v -37.769695 45.732651 288.258599
v -37.769695 45.732651 409.036828
v -37.769695 48.924751 409.036828
v -37.769695 48.924751 288.258599
v 37.598514 45.732651 409.036828
v 37.598514 45.732651 288.258599
v 37.598514 48.924751 288.258599
v 37.598514 48.924751 409.036828
v -37.769695 81.900034 288.258599
v -37.769695 81.900034 409.036828
v -37.769695 85.001165 409.036828
v -37.769695 85.001165 288.258599
v 37.598514 82.564186 409.036828
v 37.598514 82.564186 288.258599
v 37.598514 85.844873 288.258599
v 37.598514 85.844873 409.036828
vt 0.923745 0.876321
vt 0.923745 0.580660
vt 1.000000 0.580660
vt 1.000000 0.876321
vt 0.860207 0.580660
vt 0.860207 0.285000
vt 0.938527 0.285000
vt 0.938527 0.580660
vt 0.967733 0.295689
vt 0.967733 0.000028
vt 0.988847 0.000028
vt 0.988847 0.295689
vt 0.943295 0.295689
vt 0.943295 0.000028
vt 0.964409 0.000028
vt 0.964409 0.295689
vt 0.663668 0.527676
vt 0.716443 0.527676
vt 0.716443 0.823337
vt 0.663668 0.823337
vt 0.625605 0.823337
vt 0.625605 0.527676
vt 0.800519 0.332024
vt 0.853294 0.332024
vt 0.853294 0.627685
vt 0.800519 0.627685
vt 0.762456 0.627685
vt 0.762456 0.332024
vt 0.992171 0.295689
vt 0.992171 0.000028
vt 0.999985 0.000028
vt 0.999985 0.295689
vt 0.801557 0.923346
vt 0.801557 0.627685
vt 0.809371 0.627685
vt 0.809371 0.923346
vt 0.892006 0.627685
vt 0.921379 0.627685
vt 0.921379 0.923345
vt 0.892006 0.923345
vt 0.840657 0.923345
vt 0.840657 0.627685
vt 0.769818 0.627685
vt 0.800816 0.627685
vt 0.800817 0.923345
vt 0.769818 0.923345
vt 0.718468 0.923345
vt 0.718468 0.627685
vt 0.811332 0.923345
vt 0.811332 0.627685
vt 0.818923 0.627685
vt 0.818923 0.923345
vt 0.000000 0.814446
vt 0.000000 0.518786
vt 0.008031 0.518786
vt 0.008031 0.814446
vt 0.776943 0.240678
vt 0.787956 0.243895
vt 0.705044 0.527692
vt 0.694031 0.524474
vt 0.023270 0.785586
vt 0.022260 0.774157
vt 0.316772 0.748131
vt 0.317782 0.759560
vt 0.014663 0.688189
vt 0.309175 0.662163
vt 0.325416 0.845945
vt 0.030904 0.871971
vt 0.171064 0.468149
vt 0.423328 0.313947
vt 0.468557 0.387940
vt 0.216294 0.542142
vt 0.585623 0.073638
vt 0.333391 0.227892
vt 0.288365 0.154266
vt 0.540597 0.000012
vt 0.000000 0.258830
vt 0.252264 0.104628
vt 0.297494 0.178622
vt 0.045230 0.332823
vt 0.000000 0.154202
vt 0.252264 -0.000000
vt 0.297494 0.073993
vt 0.045230 0.228195
vt 0.252232 0.667038
vt 0.000000 0.512784
vt 0.045026 0.439158
vt 0.297258 0.593412
vt 0.663824 0.372674
vt 0.411592 0.526928
vt 0.366566 0.453302
vt 0.618797 0.299048
vt 0.034213 0.342545
vt 0.286476 0.188344
vt 0.331706 0.262337
vt 0.079443 0.416538
vt 0.117301 0.396384
vt 0.369565 0.242183
vt 0.414795 0.316176
vt 0.162531 0.470377
vt 0.663824 0.476826
vt 0.411592 0.631079
vt 0.366566 0.557453
vt 0.618797 0.403199
vt 0.663824 0.129965
vt 0.411592 0.284219
vt 0.366566 0.210593
vt 0.618797 0.056339
vt 0.543305 0.713223
vt 0.547504 0.702347
vt 0.622382 0.716772
vt 0.620211 0.728039
vt 0.535851 0.711787
vt 0.539618 0.700828
vt 0.509179 0.694964
vt 0.507008 0.706231
vt 0.456586 0.696517
vt 0.458756 0.685251
vt 0.555943 0.616084
vt 0.563829 0.617603
vt 0.526900 0.798379
vt 0.519446 0.796943
vt 0.448913 0.695039
vt 0.451083 0.683773
vt 0.399261 0.673790
vt 0.397091 0.685056
vt 0.359715 0.677856
vt 0.361886 0.666589
vt 0.467409 0.599028
vt 0.475082 0.600506
vt 0.440181 0.781674
vt 0.432508 0.780195
vt 0.338982 0.673862
vt 0.341153 0.662595
vt 0.357478 0.577851
vt 0.378211 0.581845
vt 0.343310 0.763012
vt 0.322578 0.759018
vt 0.576730 0.228403
vt 0.577418 0.216950
vt 0.653536 0.221524
vt 0.654909 0.233100
vt 0.661552 0.222005
vt 0.662487 0.233556
vt 0.658712 0.135376
vt 0.666729 0.135858
vt 0.691807 0.235318
vt 0.692495 0.223865
vt 0.743752 0.226945
vt 0.743064 0.238398
vt 0.657285 0.320122
vt 0.649707 0.319666
vt 0.751552 0.227414
vt 0.750864 0.238867
vt 0.748929 0.140797
vt 0.756729 0.141266
vt 0.803544 0.242032
vt 0.804232 0.230579
vt 0.842226 0.232862
vt 0.841538 0.244315
vt 0.745662 0.325432
vt 0.737862 0.324964
vt 0.863302 0.234129
vt 0.862614 0.245582
vt 0.847403 0.146715
vt 0.868479 0.147981
vt 0.857412 0.332148
vt 0.836336 0.330881
vn 0.000000 0.000000 1.000000
vn 0.000000 0.000000 1.000000
vn 0.000000 0.000000 1.000000
vn 0.000000 0.000000 1.000000
vn 0.000000 1.000000 0.000000
vn 0.000000 1.000000 0.000000
vn 0.000000 1.000000 0.000000
vn 0.000000 1.000000 0.000000
vn 0.000000 0.000000 -1.000000
vn 0.000000 0.000000 -1.000000
vn 0.000000 0.000000 -1.000000
vn 0.000000 0.000000 -1.000000
vn 0.000000 -1.000000 0.000000
vn 0.000000 -1.000000 0.000000
vn 0.000000 -1.000000 0.000000
vn 0.000000 -1.000000 0.000000
vn 1.000000 0.000000 0.000000
vn 1.000000 0.000000 0.000000
vn 1.000000 0.000000 0.000000
vn 1.000000 0.000000 0.000000
vn -1.000000 0.000000 0.000000
vn -1.000000 0.000000 0.000000
vn -1.000000 0.000000 0.000000
vn -1.000000 0.000000 0.000000
vn -1.000000 0.000000 0.000000
vn -1.000000 0.000000 0.000000
vn -1.000000 0.000000 0.000000
vn -1.000000 0.000000 0.000000
vn 0.000000 0.000000 1.000000
vn 0.000000 0.000000 1.000000
vn 0.000000 0.000000 1.000000
vn 0.000000 0.000000 1.000000
vn 1.000000 0.000000 0.000000
vn 1.000000 0.000000 0.000000
vn 1.000000 0.000000 0.000000
vn 1.000000 0.000000 0.000000
vn 0.000000 0.000000 -1.000000
vn 0.000000 0.000000 -1.000000
vn 0.000000 0.000000 -1.000000
vn 0.000000 0.000000 -1.000000
vn 0.000000 -1.000000 0.000000
vn 0.000000 -1.000000 0.000000
vn 0.000000 0.000000 1.000000
vn 0.000000 0.000000 1.000000
vn 0.000000 1.000000 0.000000
vn 0.000000 1.000000 0.000000
vn 0.000000 1.000000 0.000000
vn 0.000000 1.000000 0.000000
vn 0.000000 0.000000 -1.000000
vn 0.000000 0.000000 -1.000000
vn 0.000000 -1.000000 0.000000
vn 0.000000 -1.000000 0.000000
vn 0.000000 0.000000 -1.000000
vn 0.000000 0.000000 -1.000000
vn 0.000000 1.000000 0.000000
vn 0.000000 1.000000 0.000000
vn 0.000000 1.000000 0.000000
vn 0.000000 1.000000 0.000000
vn 0.000000 0.000000 1.000000
vn 0.000000 0.000000 1.000000
vn -1.000000 0.000000 0.000000
vn -1.000000 0.000000 0.000000
vn -1.000000 0.000000 0.000000
vn -1.000000 0.000000 0.000000
vn -1.000000 0.000000 0.000000
vn -1.000000 0.000000 0.000000
vn 0.000000 0.000000 1.000000
vn 0.000000 0.000000 1.000000
vn 0.000000 0.000000 1.000000
vn 0.000000 0.000000 1.000000
vn 1.000000 0.000000 0.000000
vn 1.000000 0.000000 0.000000
vn 1.000000 0.000000 0.000000
vn 1.000000 0.000000 0.000000
vn 1.000000 0.000000 0.000000
vn 1.000000 0.000000 0.000000
vn 0.000000 0.000000 -1.000000
vn 0.000000 0.000000 -1.000000
vn 0.000000 0.000000 -1.000000
vn 0.000000 0.000000 -1.000000
vn -1.000000 0.000000 0.000000
vn -1.000000 0.000000 0.000000
vn -1.000000 0.000000 0.000000
vn -1.000000 0.000000 0.000000
vn 0.000000 0.000000 1.000000
vn 0.000000 0.000000 1.000000
vn 1.000000 0.000000 0.000000
vn 1.000000 0.000000 0.000000
vn 1.000000 0.000000 0.000000
vn 1.000000 0.000000 0.000000
vn 0.000000 0.000000 -1.000000
vn 0.000000 0.000000 -1.000000
vn -1.000000 0.000000 0.000000
vn -1.000000 0.000000 0.000000
vn -1.000000 0.000000 0.000000
vn -1.000000 0.000000 0.000000
vn -1.000000 0.000000 0.000000
vn -1.000000 0.000000 0.000000
vn 0.000000 0.000000 1.000000
vn 0.000000 0.000000 1.000000
vn 0.000000 0.000000 1.000000
vn 0.000000 0.000000 1.000000
vn 1.000000 0.000000 0.000000
vn 1.000000 0.000000 0.000000
vn 1.000000 0.000000 0.000000
vn 1.000000 0.000000 0.000000
vn 1.000000 0.000000 0.000000
vn 1.000000 0.000000 0.000000
vn 0.000000 0.000000 -1.000000
vn 0.000000 0.000000 -1.000000
vn 0.000000 0.000000 -1.000000
vn 0.000000 0.000000 -1.000000
vn -1.000000 0.000000 0.000000
vn -1.000000 0.000000 0.000000
vn -1.000000 0.000000 0.000000
vn -1.000000 0.000000 0.000000
vn 1.000000 0.000000 0.000000
vn 1.000000 0.000000 0.000000
vn 1.000000 0.000000 0.000000
vn 1.000000 0.000000 0.000000
vn 0.000000 -1.000000 0.000000
vn 0.000000 -1.000000 0.000000
vn 0.000000 -1.000000 0.000000
vn 0.000000 -1.000000 0.000000
vn 0.000000 0.000000 1.000000
vn 0.000000 0.000000 1.000000
vn 0.000000 1.000000 0.000000
vn 0.000000 1.000000 0.000000
vn 0.000000 1.000000 0.000000
vn 0.000000 1.000000 0.000000
vn 0.000000 0.000000 -1.000000
vn 0.000000 0.000000 -1.000000
vn 0.000000 -1.000000 0.000000
vn 0.000000 -1.000000 0.000000
vn 0.000000 -1.000000 0.000000
vn 0.000000 -1.000000 0.000000
vn 0.000000 0.000000 -1.000000
vn 0.000000 0.000000 -1.000000
vn 0.000000 1.000000 0.000000
vn 0.000000 1.000000 0.000000
vn 0.000000 1.000000 0.000000
vn 0.000000 1.000000 0.000000
vn 0.000000 0.000000 1.000000
vn 0.000000 0.000000 1.000000
vn 0.000000 -1.000000 0.000000
vn 0.000000 -1.000000 0.000000
vn 0.000000 -1.000000 0.000000
vn 0.000000 -1.000000 0.000000
vn 0.000000 0.000000 1.000000
vn 0.000000 0.000000 1.000000
vn 0.000000 1.000000 0.000000
vn 0.000000 1.000000 0.000000
vn 0.000000 1.000000 0.000000
vn 0.000000 1.000000 0.000000
vn 0.000000 0.000000 -1.000000
vn 0.000000 0.000000 -1.000000
vn 0.000000 -1.000000 0.000000
vn 0.000000 -1.000000 0.000000
vn 0.000000 -1.000000 0.000000
vn 0.000000 -1.000000 0.000000
vn 0.000000 0.000000 -1.000000
vn 0.000000 0.000000 -1.000000
vn 0.000000 1.000000 0.000000
vn 0.000000 1.000000 0.000000
vn 0.000000 1.000000 0.000000
vn 0.000000 1.000000 0.000000
vn 0.000000 0.000000 1.000000
vn 0.000000 0.000000 1.000000
s 1
g Double_shelf
usemtl initialShadingGroup
f 42/109/1 43/110/2 4/111/3 3/112/4
s off
f 3/57/5 4/58/6 6/59/7 5/60/8
s 2
f 5/139/9 6/140/10 44/141/11 41/142/12
s 3
f 7/61/13 8/62/14 2/63/15 1/64/16
s off
f 43/1/17 44/2/18 6/3/19 4/4/20
f 41/5/21 42/6/22 3/7/23 5/8/24
f 13/9/25 14/10/26 15/11/27 16/12/28
s 1
f 1/133/29 2/134/30 11/128/31 10/127/32
s off
f 18/13/33 17/14/34 19/15/35 20/16/36
s 2
f 9/160/37 12/159/38 8/163/39 7/164/40
s 3
f 7/61/13 1/64/16 14/67/41 13/68/42
s 1
f 1/133/29 10/127/32 15/137/43 14/138/44
s off
f 10/69/45 9/70/46 16/71/47 15/72/48
s 2
f 9/160/37 7/164/40 13/167/49 16/168/50
s 3
f 2/63/15 8/62/14 17/65/51 18/66/52
s 2
f 8/163/39 12/159/38 19/165/53 17/166/54
s off
f 12/73/55 11/74/56 20/75/57 19/76/58
s 1
f 11/128/31 2/134/30 18/135/59 20/136/60
s off
f 22/17/61 26/18/62 25/19/63 21/20/64 9/21/65 10/22/66
s 1
f 23/125/67 27/124/68 26/123/69 22/126/70 10/127/32 11/128/31
s off
f 24/23/71 28/24/72 27/25/73 23/26/74 11/27/75 12/28/76
s 2
f 21/157/77 25/154/78 28/153/79 24/158/80 12/159/38 9/160/37
s off
f 45/29/81 46/30/82 47/31/83 48/32/84
s 1
f 26/123/69 27/124/68 31/118/85 30/117/86
s off
f 49/33/87 50/34/88 51/35/89 52/36/90
s 2
f 29/150/91 32/149/92 28/153/79 25/154/78
s off
f 34/37/93 38/38/94 37/39/95 33/40/96 29/41/97 30/42/98
s 1
f 35/115/99 39/114/100 38/113/101 34/116/102 30/117/86 31/118/85
s off
f 36/43/103 40/44/104 39/45/105 35/46/106 31/47/107 32/48/108
s 2
f 33/147/109 37/144/110 40/143/111 36/148/112 32/149/92 29/150/91
s off
f 53/49/113 54/50/114 55/51/115 56/52/116
s 1
f 38/113/101 39/114/100 43/110/2 42/109/1
s off
f 57/53/117 58/54/118 59/55/119 60/56/120
s 2
f 41/142/12 44/141/11 40/143/111 37/144/110
s off
f 25/77/121 26/78/122 46/79/123 45/80/124
s 1
f 26/123/69 30/117/86 47/131/125 46/132/126
s off
f 30/81/127 29/82/128 48/83/129 47/84/130
s 2
f 29/150/91 25/154/78 45/161/131 48/162/132
s off
f 27/85/133 28/86/134 50/87/135 49/88/136
s 2
f 28/153/79 32/149/92 51/155/137 50/156/138
s off
f 32/89/139 31/90/140 52/91/141 51/92/142
s 1
f 31/118/85 27/124/68 49/129/143 52/130/144
s off
f 37/93/145 38/94/146 54/95/147 53/96/148
s 1
f 38/113/101 42/109/1 55/121/149 54/122/150
s off
f 42/97/151 41/98/152 56/99/153 55/100/154
s 2
f 41/142/12 37/144/110 53/151/155 56/152/156
s off
f 39/101/157 40/102/158 58/103/159 57/104/160
s 2
f 40/143/111 44/141/11 59/145/161 58/146/162
s off
f 44/105/163 43/106/164 60/107/165 59/108/166
s 1
f 43/110/2 39/114/100 57/119/167 60/120/168
