# This file uses meters as units for non-parametric coordinates.

mtllib cash register.mtl
g default
v -631.995159 110.149490 1082.733226
v -631.995159 110.149490 1018.781566
v -666.403484 126.413010 1082.733226
v -666.403484 126.413010 1018.781566
v -635.952068 119.217110 1082.733226
v -631.995159 114.216187 1082.733226
v -631.995159 114.216187 1018.781566
v -635.952068 119.217110 1018.781566
v -689.793133 126.413010 1029.954418
v -689.793133 110.149490 1029.954418
v -631.995159 110.149490 1029.954418
v -631.995159 114.216187 1029.954418
v -635.952068 119.217110 1029.954418
v -666.403484 126.413010 1029.954418
v -689.793133 110.149490 1025.176708
v -689.793133 126.413010 1025.176708
v -666.403484 126.413010 1025.176708
v -635.952068 119.217110 1025.176708
v -631.995159 114.216187 1025.176708
v -631.995159 110.149490 1025.176708
v -682.776226 126.413010 1082.733226
v -682.776226 126.413010 1018.781566
v -677.864422 126.413010 1018.781566
v -677.864422 126.413010 1082.733226
v -688.381145 158.654739 1035.217357
v -679.522564 158.654739 1016.480236
v -681.118145 158.654739 1038.651195
v -672.259563 158.654739 1019.914012
v -688.381145 167.341965 1035.217357
v -679.522564 167.341965 1016.480236
v -681.118145 167.341965 1038.651195
v -672.259563 167.341965 1019.914012
v -687.682537 159.606308 1033.739818
v -680.221172 159.606308 1017.957836
v -687.682537 166.390411 1033.739818
v -680.221172 166.390411 1017.957836
v -687.051067 159.606308 1034.038402
v -679.589702 159.606308 1018.256298
v -687.051067 166.390411 1034.038402
v -679.589702 166.390411 1018.256298
v -682.776226 138.682144 1028.760082
v -683.795635 138.682144 1029.954418
v -682.776226 138.682144 1030.973827
v -681.581890 138.682144 1029.954418
v -683.391888 158.654739 1030.532543
v -682.776226 158.654739 1028.760082
v -681.581890 158.654739 1029.954418
v -681.581890 138.682144 1025.176708
v -682.776226 138.682144 1024.157299
v -683.795635 138.682144 1025.176708
v -682.776226 138.682144 1026.371044
v -682.480327 158.654739 1024.385692
v -681.581890 158.654739 1025.176708
v -682.776226 158.654739 1026.371044
v -679.058758 138.682144 1029.954418
v -677.864422 138.682144 1030.973827
v -676.845013 138.682144 1029.954418
v -677.864422 138.682144 1028.760082
v -678.160320 158.654739 1030.745433
v -679.058758 158.654739 1029.954418
v -677.864422 158.654739 1028.760082
v -677.864422 138.682144 1026.371044
v -676.845013 138.682144 1025.176708
v -677.864422 138.682144 1024.157299
v -679.058758 138.682144 1025.176708
v -677.248760 158.654739 1024.598583
v -677.864422 158.654739 1026.371044
v -679.058758 158.654739 1025.176708
v -689.793133 110.149490 1080.045604
v -687.105511 110.149490 1082.733226
v -689.793133 126.413010 1080.045604
v -687.105511 126.413010 1082.733226
v -687.105511 126.413010 1018.781566
v -689.793133 126.413010 1021.469188
v -689.793133 110.149490 1021.469188
v -687.105511 110.149490 1018.781566
v -689.793133 135.994553 1080.045604
v -687.105511 135.994553 1082.733226
v -687.105511 138.682144 1080.045604
v -682.776226 135.994553 1082.733226
v -682.776226 138.682144 1080.045604
v -666.403484 135.994553 1082.733226
v -669.091106 138.682144 1080.045604
v -666.403484 135.994553 1029.954418
v -669.091106 138.682144 1029.954418
v -687.105511 138.682144 1021.469188
v -687.105511 135.994553 1018.781566
v -689.793133 135.994553 1021.469188
v -682.776226 135.994553 1018.781566
v -682.776226 138.682144 1021.469188
v -689.793133 135.994553 1029.954418
v -687.105511 138.682144 1029.954418
v -666.403484 135.994553 1025.176708
v -669.091106 138.682144 1025.176708
v -689.793133 135.994553 1025.176708
v -687.105511 138.682144 1025.176708
v -669.091106 138.682144 1021.469188
v -666.403484 135.994553 1018.781566
v -677.864422 135.994553 1082.733226
v -677.864422 138.682144 1080.045604
v -677.864422 135.994553 1018.781566
v -677.864422 138.682144 1021.469188
v -677.864422 138.682144 1053.778758
v -682.776226 138.682144 1053.778636
v -677.864422 138.682144 1068.487377
v -682.776226 138.682144 1068.487377
v -679.417522 147.461014 1053.778758
v -683.398296 147.461014 1053.778636
v -683.398296 147.461014 1068.487377
v -679.417522 147.461014 1068.487377
vt 0.208950 0.982735
vt 0.199240 0.578064
vt 0.230421 0.577316
vt 0.240131 0.981986
vt 0.198361 0.541432
vt 0.229542 0.540684
vt 0.289025 0.980813
vt 0.279315 0.576143
vt 0.197185 0.492399
vt 0.228365 0.491650
vt 0.278436 0.539511
vt 0.277260 0.490477
vt 0.577862 0.450310
vt 0.453174 0.452878
vt 0.452379 0.416030
vt 0.577196 0.413697
vt 0.578647 0.478823
vt 0.453886 0.481447
vt 0.446515 0.030983
vt 0.571204 0.029371
vt 0.651283 0.448495
vt 0.650832 0.412346
vt 0.579801 0.507932
vt 0.454656 0.510630
vt 0.651008 0.475914
vt 0.446260 0.001733
vt 0.571425 0.000000
vt 0.644378 0.029010
vt 0.680046 0.411980
vt 0.680519 0.449840
vt 0.654683 0.504252
vt 0.678048 0.480604
vt 0.648442 0.001600
vt 0.673289 0.027654
vt 0.505915 0.663035
vt 0.506545 0.509856
vt 0.524867 0.509931
vt 0.524238 0.663110
vt 0.493591 0.509803
vt 0.492961 0.662981
vt 0.537821 0.509985
vt 0.537192 0.663163
vt 0.459843 0.663796
vt 0.459214 0.510618
vt 0.477536 0.510542
vt 0.478165 0.663721
vt 0.446260 0.510671
vt 0.446889 0.663849
vt 0.490490 0.510489
vt 0.491119 0.663668
vt 0.542028 0.642755
vt 0.539663 0.508889
vt 0.591686 0.507970
vt 0.594050 0.641836
vt 0.928843 0.158929
vt 0.931802 0.000000
vt 0.998417 0.001240
vt 0.995458 0.160169
vt 0.929199 0.319273
vt 0.928843 0.160318
vt 0.936169 0.172836
vt 0.936469 0.306722
vt 0.995470 0.160169
vt 0.988200 0.172720
vt 0.995825 0.319124
vt 0.988499 0.306605
vt 0.669390 0.981772
vt 0.670259 0.576986
vt 0.743744 0.577144
vt 0.742875 0.981930
vt 0.670337 0.540344
vt 0.743823 0.540502
vt 0.772070 0.961380
vt 0.772895 0.577207
vt 0.670442 0.491296
vt 0.743928 0.491454
vt 0.772973 0.540564
vt 0.773034 0.512129
vt 0.596743 0.619906
vt 0.596805 0.507098
vt 0.664303 0.507135
vt 0.664241 0.619944
vt 0.928843 0.432080
vt 0.929227 0.319273
vt 0.997602 0.319506
vt 0.997218 0.432313
vt 0.000000 0.085690
vt 0.443281 0.085690
vt 0.443281 0.490477
vt 0.020613 0.490477
vt 0.000000 0.469865
vt 0.000000 0.049048
vt 0.443281 0.049048
vt 0.000000 0.020613
vt 0.020613 0.000000
vt 0.443281 0.000000
vt 0.684957 0.000854
vt 0.924935 0.000000
vt 0.926375 0.404785
vt 0.686397 0.405638
vt 0.926505 0.441427
vt 0.686527 0.442281
vt 0.926679 0.490474
vt 0.686702 0.491328
vt 0.140588 0.660497
vt 0.072647 0.516793
vt 0.128351 0.490457
vt 0.196291 0.634162
vt 0.192141 0.613798
vt 0.134916 0.492759
vt 0.139759 0.490469
vt 0.196984 0.611509
vt 0.788738 0.611774
vt 0.845963 0.490735
vt 0.850806 0.493024
vt 0.793581 0.614064
vt 0.832192 0.598460
vt 0.846074 0.594026
vt 0.865425 0.594026
vt 0.872316 0.600092
vt 0.849631 0.660726
vt 0.793927 0.634390
vt 0.836914 0.584866
vt 0.874585 0.584866
vt 0.874585 0.566543
vt 0.879307 0.552949
vt 0.917572 0.517021
vt 0.839184 0.551316
vt 0.836914 0.566543
vt 0.861868 0.490686
vt 0.865425 0.557383
vt 0.846074 0.557383
vt 0.329247 0.914510
vt 0.321311 0.905452
vt 0.329028 0.897533
vt 0.338288 0.905232
vt 0.295928 0.905780
vt 0.329484 0.932831
vt 0.321784 0.942091
vt 0.296402 0.942419
vt 0.326768 0.722646
vt 0.364436 0.722159
vt 0.366696 0.897046
vt 0.357638 0.904983
vt 0.338761 0.941872
vt 0.329703 0.949808
vt 0.329970 0.970423
vt 0.296769 0.970852
vt 0.290964 0.521638
vt 0.325310 0.609847
vt 0.374614 0.904763
vt 0.434078 0.903995
vt 0.366915 0.914023
vt 0.358111 0.941622
vt 0.367371 0.949321
vt 0.367638 0.969936
vt 0.297146 1.000000
vt 0.330346 0.999571
vt 0.324165 0.521209
vt 0.362978 0.609360
vt 0.429114 0.519853
vt 0.375088 0.941403
vt 0.367152 0.932345
vt 0.434551 0.940634
vt 0.434919 0.969067
vt 0.368014 0.999084
vt 0.290588 0.492490
vt 0.323788 0.492060
vt 0.361833 0.520722
vt 0.455907 0.997949
vt 0.361456 0.491574
vt 0.449349 0.490438
vt 0.985319 0.285602
vt 0.954788 0.285603
vt 0.954788 0.172795
vt 0.985319 0.172795
vt 0.555230 0.795700
vt 0.555230 0.642521
vt 0.574581 0.642521
vt 0.574581 0.795700
vt 0.595338 0.642154
vt 0.595338 0.795334
vt 0.575986 0.795334
vt 0.575986 0.642154
vt 0.596743 0.621481
vt 0.658339 0.619940
vt 0.660004 0.686546
vt 0.598408 0.688087
vt 0.836432 0.720641
vt 0.774836 0.722181
vt 0.773171 0.655575
vt 0.834767 0.654035
vt 0.674579 0.052030
vt 0.674833 0.000000
vt 0.680190 0.000026
vt 0.679936 0.052056
vt 0.944410 0.224848
vt 0.944665 0.172818
vt 0.950021 0.172844
vt 0.949767 0.224874
vt 0.124733 0.913146
vt 0.000000 0.913146
vt 0.000000 0.490477
vt 0.031190 0.490477
vt 0.069544 0.520825
vt 0.124733 0.754372
vt 0.124733 0.842272
vt 0.124733 0.879943
vt 0.198219 0.842272
vt 0.198219 0.754372
vt 0.198219 0.879943
vt 0.198219 0.913146
vt 0.872602 0.883671
vt 0.872602 0.850467
vt 0.872602 0.812796
vt 0.872602 0.724896
vt 0.927791 0.491349
vt 0.966146 0.461002
vt 0.997335 0.461002
vt 0.997335 0.883671
vt 0.799116 0.850467
vt 0.799116 0.883671
vt 0.799116 0.812796
vt 0.799116 0.724896
vt 0.198114 0.720676
vt 0.160443 0.720676
vt 0.155672 0.653347
vt 0.186203 0.653347
vt 0.783131 0.491002
vt 0.820802 0.491002
vt 0.808891 0.558331
vt 0.778360 0.558331
vn 0.000000 -1.000000 0.000000
vn 0.000000 -1.000000 0.000000
vn 0.000000 -1.000000 0.000000
vn 0.000000 -1.000000 0.000000
vn 0.000000 -1.000000 0.000000
vn 1.000000 0.000000 0.000000
vn 1.000000 0.000000 0.000000
vn 1.000000 0.000000 0.000000
vn 1.000000 0.000000 0.000000
vn 0.229974 0.973197 0.000000
vn 0.229974 0.973197 0.000000
vn 0.229974 0.973197 0.000000
vn 0.229974 0.973197 0.000000
vn 0.784210 0.620495 0.000000
vn 0.784210 0.620495 0.000000
vn 0.784210 0.620495 0.000000
vn 0.784210 0.620495 0.000000
vn 1.000000 0.000000 0.000000
vn 1.000000 0.000000 0.000000
vn 1.000000 0.000000 0.000000
vn 1.000000 0.000000 0.000000
vn 0.784210 0.620495 0.000000
vn 0.784210 0.620495 0.000000
vn 0.784210 0.620495 0.000000
vn 0.784210 0.620495 0.000000
vn 0.229974 0.973197 0.000000
vn 0.229974 0.973197 0.000000
vn 0.229974 0.973197 0.000000
vn 0.229974 0.973197 0.000000
vn -1.000000 0.000000 0.000000
vn -1.000000 0.000000 0.000000
vn -1.000000 0.000000 0.000000
vn -1.000000 0.000000 0.000000
vn 0.000000 -1.000000 0.000000
vn 0.000000 -1.000000 0.000000
vn 0.000000 1.000000 0.000000
vn 0.000000 1.000000 0.000000
vn 0.000000 1.000000 0.000000
vn 0.000000 1.000000 0.000000
vn -1.000000 0.000000 0.000000
vn -1.000000 0.000000 0.000000
vn -1.000000 0.000000 0.000000
vn -1.000000 0.000000 0.000000
vn 0.000000 0.000000 1.000000
vn 0.000000 0.000000 1.000000
vn 0.000000 0.000000 1.000000
vn 0.000000 0.000000 1.000000
vn 1.000000 0.000000 0.000000
vn 1.000000 0.000000 0.000000
vn 1.000000 0.000000 0.000000
vn 1.000000 0.000000 0.000000
vn 0.000000 0.000000 -1.000000
vn 0.000000 0.000000 -1.000000
vn 0.000000 0.000000 -1.000000
vn 0.000000 0.000000 -1.000000
vn -0.904056 0.000000 -0.427414
vn -0.904056 0.000000 -0.427414
vn -0.904056 0.000000 -0.427414
vn -0.904056 0.000000 -0.427414
vn -0.427422 0.000000 0.904052
vn -0.427422 0.000000 0.904052
vn -0.427422 0.000000 0.904052
vn -0.427422 0.000000 0.904052
vn 0.904054 0.000000 0.427419
vn 0.904054 0.000000 0.427419
vn 0.904054 0.000000 0.427419
vn 0.904054 0.000000 0.427419
vn 0.427416 0.000000 -0.904055
vn 0.427416 0.000000 -0.904055
vn 0.427416 0.000000 -0.904055
vn 0.427416 0.000000 -0.904055
vn -0.904050 0.000005 -0.427426
vn -0.904046 0.000005 -0.427435
vn -0.904049 0.000008 -0.427429
vn -0.904052 0.000008 -0.427424
vn -0.904046 -0.000006 -0.427435
vn -0.904049 -0.000009 -0.427429
vn -0.904050 -0.000006 -0.427427
vn -0.904051 -0.000009 -0.427424
vn 0.000000 1.000000 0.000000
vn 0.000000 1.000000 0.000000
vn 0.000000 1.000000 0.000000
vn 0.000000 1.000000 0.000000
vn 0.427463 0.000000 -0.904033
vn 0.427463 0.000000 -0.904033
vn 0.427463 0.000000 -0.904033
vn 0.427463 0.000000 -0.904033
vn 0.000000 -1.000000 0.000000
vn 0.000000 -1.000000 0.000000
vn 0.000000 -1.000000 0.000000
vn 0.000000 -1.000000 0.000000
vn -0.427320 0.000000 0.904101
vn -0.427320 0.000000 0.904101
vn -0.427320 0.000000 0.904101
vn -0.427320 0.000000 0.904101
vn 0.000000 -1.000000 0.000000
vn 0.000000 -1.000000 0.000000
vn 0.000000 -1.000000 0.000000
vn 0.000000 -1.000000 0.000000
vn 0.000000 -1.000000 0.000000
vn 0.000000 -1.000000 0.000000
vn 0.000000 -1.000000 -0.000000
vn 0.000000 -1.000000 -0.000000
vn 0.000000 -1.000000 -0.000000
vn 0.000000 -1.000000 -0.000000
vn 0.000000 -1.000000 0.000000
vn 0.000000 -1.000000 0.000000
vn 0.000000 -1.000000 -0.000000
vn 0.000000 -1.000000 -0.000000
vn 0.000000 -1.000000 -0.000000
vn 0.000000 -1.000000 -0.000000
vn -0.707107 0.000000 0.707107
vn -0.707107 0.000000 0.707107
vn -0.707107 0.000000 0.707107
vn -0.707107 0.000000 0.707107
vn -0.707107 0.000000 -0.707107
vn -0.707107 0.000000 -0.707107
vn -0.707107 0.000000 -0.707107
vn -0.707107 0.000000 -0.707107
vn 0.707107 0.000000 0.707107
vn 0.707107 0.000000 0.707107
vn 0.707107 0.000000 0.707107
vn 0.707107 0.000000 0.707107
vn 0.707107 0.000000 -0.707107
vn 0.707107 0.000000 -0.707107
vn 0.707107 0.000000 -0.707107
vn 0.707107 0.000000 -0.707107
vn 0.000000 1.000000 0.000000
vn 0.000000 1.000000 0.000000
vn 0.000000 1.000000 0.000000
vn 0.000000 1.000000 0.000000
vn 0.000000 1.000000 0.000000
vn 0.000000 1.000000 0.000000
vn 0.000000 1.000000 0.000000
vn 0.000000 1.000000 0.000000
vn 0.000000 1.000000 -0.000000
vn 0.000000 1.000000 -0.000000
vn 0.000000 1.000000 -0.000000
vn 0.000000 1.000000 -0.000000
vn 0.000000 1.000000 0.000000
vn 0.000000 1.000000 0.000000
vn 0.000000 1.000000 0.000000
vn 0.000000 1.000000 0.000000
vn 0.000000 -1.000000 0.000000
vn 0.000000 -1.000000 0.000000
vn 0.000000 -1.000000 0.000000
vn -0.707107 0.000000 0.707107
vn -0.707107 0.000000 0.707107
vn -0.707107 0.000000 0.707107
vn -0.707107 0.000000 0.707107
vn -0.707107 0.000000 0.707107
vn -0.707107 0.000000 0.707107
vn -0.707107 0.000000 -0.707107
vn -0.707107 0.000000 -0.707107
vn -0.707107 0.000000 -0.707107
vn -0.707107 0.000000 -0.707107
vn -0.707107 0.000000 -0.707107
vn -0.707107 0.000000 -0.707107
vn -0.707103 0.707111 0.000000
vn -0.707103 0.707111 0.000000
vn -0.707103 0.707111 0.000000
vn -0.707103 0.707111 0.000000
vn 0.000000 0.707111 0.707103
vn 0.000000 0.707111 0.707103
vn 0.000000 0.707111 0.707103
vn 0.000000 0.707111 0.707103
vn 0.000000 0.707111 0.707103
vn 0.000000 0.707111 0.707103
vn 0.000000 0.707111 0.707103
vn 0.000000 0.707111 0.707103
vn 0.707103 0.707111 0.000000
vn 0.707103 0.707111 0.000000
vn 0.707103 0.707111 0.000000
vn 0.707103 0.707111 0.000000
vn 0.707103 0.707111 0.000000
vn 0.707103 0.707111 0.000000
vn -0.707103 0.707111 0.000000
vn -0.707103 0.707111 0.000000
vn -0.707103 0.707111 0.000000
vn -0.707103 0.707111 0.000000
vn 0.000000 0.707111 -0.707103
vn 0.000000 0.707111 -0.707103
vn 0.000000 0.707111 -0.707103
vn 0.000000 0.707111 -0.707103
vn 0.000000 0.707111 -0.707103
vn 0.000000 0.707111 -0.707103
vn 0.707103 0.707111 0.000000
vn 0.707103 0.707111 0.000000
vn 0.000000 0.707111 -0.707103
vn 0.000000 0.707111 -0.707103
vn -0.000000 0.000000 1.000000
vn -0.000000 0.000000 1.000000
vn -0.000000 0.000000 1.000000
vn -0.000000 0.000000 1.000000
vn -0.000000 0.000000 1.000000
vn -0.000000 0.000000 1.000000
vn -0.000000 0.000000 1.000000
vn -0.000000 0.000000 1.000000
vn 0.000000 1.000000 0.000000
vn 0.000000 1.000000 0.000000
vn 0.000000 1.000000 0.000000
vn 0.000000 0.000000 -1.000000
vn 0.000000 0.000000 -1.000000
vn 0.000000 0.000000 -1.000000
vn 0.000000 0.000000 -1.000000
vn 0.000000 0.000000 -1.000000
vn 0.000000 0.000000 -1.000000
vn 0.000000 0.000000 -1.000000
vn 0.000000 0.000000 -1.000000
vn -1.000000 0.000000 0.000000
vn -1.000000 0.000000 0.000000
vn 0.000000 0.000000 1.000000
vn 0.000000 0.000000 1.000000
vn 1.000000 0.000000 0.000000
vn 1.000000 0.000000 0.000000
vn 1.000000 0.000000 0.000000
vn 1.000000 0.000000 0.000000
vn 0.000000 0.000000 -1.000000
vn 0.000000 0.000000 -1.000000
vn -1.000000 0.000000 0.000000
vn -1.000000 0.000000 0.000000
vn -1.000000 0.000000 0.000000
vn -1.000000 0.000000 0.000000
vn 1.000000 0.000000 0.000000
vn 1.000000 0.000000 0.000000
vn 1.000000 0.000000 0.000000
vn 1.000000 0.000000 0.000000
vn 0.000000 1.000000 0.000000
vn 0.000000 1.000000 0.000000
vn 0.000000 1.000000 0.000000
vn -1.000000 0.000000 0.000000
vn -1.000000 0.000000 0.000000
vn 0.000000 1.000000 0.000000
vn 0.000000 0.000000 1.000000
vn 0.000000 0.000000 1.000000
vn 0.000000 1.000000 0.000000
vn 0.000000 1.000000 0.000000
vn 0.000000 1.000000 0.000000
vn 0.000000 0.000000 -1.000000
vn 0.000000 0.000000 -1.000000
vn 0.000000 1.000000 0.000000
vn 0.000000 1.000000 0.000000
vn 0.000000 1.000000 -0.000000
vn 0.000000 1.000000 -0.000000
vn -0.577348 0.577354 0.577348
vn -0.577348 0.577354 0.577348
vn -0.577348 0.577355 0.577348
vn -0.577348 0.577355 -0.577348
vn -0.577348 0.577355 -0.577348
vn -0.577348 0.577355 -0.577348
vn 0.000000 1.000000 0.000000
vn 0.000000 1.000000 0.000000
vn 0.000000 1.000000 0.000000
vn 0.000000 1.000000 0.000000
vn 0.000000 1.000000 0.000000
vn 0.000000 1.000000 0.000000
vn 0.000027 0.000003 -1.000000
vn 0.000027 0.000003 -1.000000
vn 0.000027 0.000003 -1.000000
vn 0.000027 0.000003 -1.000000
vn -0.997499 -0.070683 0.000000
vn -0.997499 -0.070683 0.000000
vn -0.997499 -0.070683 0.000000
vn -0.997499 -0.070683 0.000000
vn 0.000000 0.000000 1.000000
vn 0.000000 0.000000 1.000000
vn 0.000000 0.000000 1.000000
vn 0.000000 0.000000 1.000000
vn 0.984709 0.174208 0.000000
vn 0.984709 0.174208 0.000000
vn 0.984709 0.174208 0.000000
vn 0.984709 0.174208 0.000000
s 1
g Cash_Register
usemtl initialShadingGroup
f 10/87/1 11/88/2 1/89/3 70/90/4 69/91/5
s 2
f 1/1/6 11/2/7 12/3/8 6/4/9
s 3
f 3/97/10 5/98/11 13/99/12 14/100/13
s 4
f 5/7/14 6/4/15 12/3/16 13/8/17
s 2
f 19/6/18 20/5/19 2/9/20 7/10/21
s 4
f 18/11/22 19/6/23 7/10/24 8/12/25
s 3
f 17/102/26 18/101/27 8/103/28 4/104/29
s 5
f 16/13/30 15/14/31 10/15/32 9/16/33
s 3
f 14/100/13 13/99/12 18/101/27 17/102/26
s 4
f 13/8/17 12/3/16 19/6/23 18/11/22
s 2
f 12/3/8 11/2/7 20/5/19 19/6/18
s 1
f 15/92/34 20/93/35 11/88/2 10/87/1
s off
f 30/105/36 29/106/37 31/107/38 32/108/39
f 54/35/40 51/36/41 41/37/42 46/38/43
f 47/177/44 44/178/45 55/179/46 60/180/47
f 61/43/48 58/44/49 62/45/50 67/46/51
f 68/181/52 65/182/53 48/183/54 53/184/55
f 38/51/56 37/52/57 39/53/58 40/54/59
f 25/185/60 27/186/61 31/187/62 29/188/63
f 27/55/64 28/56/65 32/57/66 31/58/67
f 28/189/68 26/190/69 30/191/70 32/192/71
s 6
f 26/59/72 25/60/73 33/61/74 34/62/75
f 25/60/73 29/63/76 35/64/77 33/61/74
f 29/63/76 30/65/78 36/66/79 35/64/77
f 30/65/78 26/59/72 34/62/75 36/66/79
s off
f 34/109/80 33/110/81 37/111/82 38/112/83
f 33/193/84 35/194/85 39/195/86 37/196/87
f 35/113/88 36/114/89 40/115/90 39/116/91
f 36/197/92 34/198/93 38/199/94 40/200/95
s 7
f 45/117/96 47/118/97 60/119/98 59/120/99 27/121/100 25/122/101
f 52/128/102 54/129/103 46/123/104 45/117/96 25/122/101 26/130/105
f 59/120/99 61/124/106 67/125/107 66/126/108 28/127/109 27/121/100
f 66/126/108 68/131/110 53/132/111 52/128/102 26/130/105 28/127/109
s off
f 41/37/112 44/41/113 47/42/114 46/38/115
f 48/39/116 51/36/117 54/35/118 53/40/119
f 55/47/120 58/44/121 61/43/122 60/48/123
f 62/45/124 65/49/125 68/50/126 67/46/127
s 8
f 41/133/128 42/134/129 43/135/130 44/136/131
s 7
f 45/117/96 46/123/104 47/118/97
s 8
f 48/145/132 49/146/133 50/139/134 51/138/135
s 7
f 52/128/102 53/132/111 54/129/103
s 8
f 55/144/136 56/143/137 57/151/138 58/153/139
s 7
f 59/120/99 60/119/98 61/124/106
s 8
f 62/163/140 63/162/141 64/155/142 65/154/143
s 7
f 66/126/108 67/125/107 68/131/110
s 1
f 75/94/144 76/95/145 2/96/146 20/93/35 15/92/34
s 10
f 69/19/147 70/26/148 72/27/149 71/20/150
f 71/20/150 72/27/149 78/33/151 77/28/152
s 11
f 73/23/153 74/17/154 88/25/155 87/31/156
f 74/17/154 73/23/153 76/24/157 75/18/158
s 12
f 77/28/159 79/34/160 92/29/161 91/22/162
s 13
f 79/149/163 78/167/164 80/168/165 81/159/166
f 81/159/166 80/168/165 99/171/167 100/169/168
f 82/172/169 83/161/170 100/169/168 99/171/167
s 14
f 83/73/171 82/70/172 84/69/173 85/74/174
f 85/74/174 84/69/173 93/72/175 94/77/176
s 12
f 86/32/177 88/25/178 95/21/179 96/30/180
s 15
f 87/157/181 86/148/182 90/147/183 89/158/184
f 89/158/184 90/147/183 102/156/185 101/166/186
s 12
f 91/22/162 92/29/161 96/30/180 95/21/179
s 14
f 94/77/176 93/72/175 98/76/187 97/78/188
s 15
f 97/165/189 98/170/190 101/166/186 102/156/185
s 16
f 72/201/191 70/202/192 1/203/193 6/204/194 5/205/195 3/206/196 24/207/197 21/208/198
s 8
f 79/149/199 81/159/200 106/150/201
s 18
f 73/213/202 22/214/203 23/215/204 4/216/205 8/217/206 7/218/207 2/219/208 76/220/209
s 5
f 9/16/33 10/15/32 69/19/210 71/20/211
s 16
f 72/201/191 21/208/198 80/211/212 78/212/213
s 19
f 3/67/214 14/68/215 84/69/216 82/70/217
s 18
f 89/221/218 22/214/203 73/213/202 87/222/219
s 5
f 91/22/220 9/16/33 71/20/211 77/28/221
f 74/17/222 75/18/223 15/14/31 16/13/30
s 19
f 93/72/224 17/71/225 4/75/226 98/76/227
s 8
f 96/140/228 50/139/134 49/146/133 90/147/229 86/148/230
s 5
f 74/17/222 16/13/30 95/21/231 88/25/232
f 95/21/231 16/13/30 9/16/33 91/22/220
s 8
f 92/137/233 42/134/129 41/133/128 51/138/135 50/139/134 96/140/228
s 19
f 84/69/216 14/68/215 17/71/225 93/72/224
s 16
f 99/209/234 24/207/197 3/206/196 82/210/235
s 8
f 102/156/236 64/155/142 63/162/141 94/164/237 97/165/238
s 18
f 4/216/205 23/215/204 101/223/239 98/224/240
f 101/223/239 23/215/204 22/214/203 89/221/218
s 8
f 90/147/229 49/146/133 48/145/132 65/154/143 64/155/142 102/156/236
s 16
f 80/211/212 21/208/198 24/207/197 99/209/234
s 8
f 105/160/241 106/150/201 81/159/200 100/169/242
f 57/151/138 56/143/137 103/142/243 85/152/244
f 63/162/141 62/163/140 58/153/139 57/151/138 85/152/244 94/164/237
s off
f 77/28/245 78/33/246 79/34/247
f 86/32/248 87/31/249 88/25/250
s 8
f 44/136/131 43/135/130 104/141/251 103/142/243 56/143/137 55/144/136
s off
f 107/173/252 108/174/253 109/175/254 110/176/255
s 8
f 83/161/256 105/160/241 100/169/242
f 79/149/199 106/150/201 104/141/251 92/137/233
f 92/137/233 104/141/251 43/135/130 42/134/129
f 85/152/244 103/142/243 105/160/241 83/161/256
s off
f 103/225/257 104/226/258 108/227/259 107/228/260
f 104/79/261 106/80/262 109/81/263 108/82/264
f 106/229/265 105/230/266 110/231/267 109/232/268
f 105/83/269 103/84/270 107/85/271 110/86/272
