# This file uses meters as units for non-parametric coordinates.

mtllib TV.mtl
g default
v -323.196202 2.419345 623.944314
v -321.546177 2.419345 623.944314
v -323.196202 82.624709 623.944314
v -321.546177 82.624709 623.944314
v -323.196202 82.624709 479.268777
v -321.546177 82.624709 479.268777
v -323.196202 2.419345 479.268777
v -321.546177 2.419345 479.268777
v -323.196202 4.219344 481.068764
v -323.196202 4.219344 622.144326
v -323.196202 80.824706 622.144326
v -323.196202 80.824706 481.068764
v -322.802220 4.219344 481.068764
v -322.802220 4.219344 622.144326
v -322.802220 80.824706 622.144326
v -322.802220 80.824706 481.068764
v -318.453221 9.319347 486.168771
v -318.453221 9.319347 617.044289
v -318.453221 75.724708 486.168771
v -318.453221 75.724708 617.044289
vt 0.028619 0.571444
vt 0.028619 0.028619
vt 0.304044 0.028619
vt 0.304044 0.571444
vt 0.000000 0.600062
vt 0.000000 0.000000
vt 0.332663 0.000000
vt 0.332663 0.600062
vt 0.667006 0.578215
vt 0.667006 0.000000
vt 0.980982 0.000000
vt 0.980982 0.578215
vt 0.335627 0.592970
vt 0.335627 0.000000
vt 0.343005 0.007377
vt 0.343005 0.585592
vt 0.664358 0.000000
vt 0.656981 0.007377
vt 0.664358 0.592970
vt 0.656981 0.585592
vt 0.981391 0.000000
vt 0.988154 0.000000
vt 0.988154 0.592970
vt 0.981391 0.592970
vt 0.989888 0.000000
vt 0.996651 0.000000
vt 0.996651 0.592970
vt 0.989888 0.592970
vt 0.998385 0.578215
vt 0.998385 0.000000
vt 1.000000 0.000000
vt 1.000000 0.578215
vt 0.361118 0.585581
vt 0.361118 0.007377
vt 0.362733 0.007377
vt 0.362733 0.585581
vt 0.344124 0.007377
vt 0.350887 0.007377
vt 0.350887 0.336108
vt 0.344124 0.336108
vt 0.352621 0.007377
vt 0.359384 0.007377
vt 0.359384 0.336108
vt 0.352621 0.336108
vt 0.365367 0.321354
vt 0.365367 0.007377
vt 0.366981 0.007377
vt 0.366981 0.321354
vt 0.369615 0.321354
vt 0.369615 0.007377
vt 0.371230 0.007377
vt 0.371230 0.321354
vn 0.000000 0.000000 1.000000
vn 0.000000 0.000000 1.000000
vn 0.000000 0.000000 1.000000
vn 0.000000 0.000000 1.000000
vn 0.000000 1.000000 0.000000
vn 0.000000 1.000000 0.000000
vn 0.000000 1.000000 0.000000
vn 0.000000 1.000000 0.000000
vn 0.000000 0.000000 -1.000000
vn 0.000000 0.000000 -1.000000
vn 0.000000 0.000000 -1.000000
vn 0.000000 0.000000 -1.000000
vn 0.000000 -1.000000 0.000000
vn 0.000000 -1.000000 0.000000
vn 0.000000 -1.000000 0.000000
vn 0.000000 -1.000000 0.000000
vn 0.997859 -0.057736 0.030719
vn 0.997859 -0.057736 -0.030719
vn 0.997859 0.057736 -0.030719
vn 0.997859 0.057736 0.030719
vn -1.000000 0.000000 0.000000
vn -1.000000 0.000000 0.000000
vn -1.000000 0.000000 0.000000
vn -1.000000 0.000000 0.000000
vn -1.000000 -0.000000 0.000000
vn -1.000000 -0.000000 0.000000
vn -1.000000 -0.000000 0.000000
vn -1.000000 -0.000000 0.000000
vn -1.000000 0.000000 0.000000
vn -1.000000 0.000000 0.000000
vn -1.000000 0.000000 0.000000
vn -1.000000 0.000000 0.000000
vn 0.000000 1.000000 0.000000
vn 0.000000 1.000000 0.000000
vn 0.000000 1.000000 0.000000
vn 0.000000 1.000000 0.000000
vn 0.000000 0.000000 -1.000000
vn 0.000000 0.000000 -1.000000
vn 0.000000 0.000000 -1.000000
vn 0.000000 0.000000 -1.000000
vn 0.000000 -1.000000 0.000000
vn 0.000000 -1.000000 0.000000
vn 0.000000 -1.000000 0.000000
vn 0.000000 -1.000000 0.000000
vn 0.000000 0.000000 1.000000
vn 0.000000 0.000000 1.000000
vn 0.000000 0.000000 1.000000
vn 0.000000 0.000000 1.000000
vn 0.912517 -0.409040 0.000000
vn 0.912517 -0.409040 0.000000
vn 0.912516 0.000000 -0.409040
vn 0.912516 0.000000 -0.409040
vn 0.912517 0.409040 0.000000
vn 0.912517 0.409040 0.000000
vn 0.912517 0.000000 0.409039
vn 0.912517 0.000000 0.409039
s off
g TV
usemtl initialShadingGroup
f 1/37/1 2/38/2 4/39/3 3/40/4
f 3/21/5 4/22/6 6/23/7 5/24/8
f 5/41/9 6/42/10 8/43/11 7/44/12
f 7/25/13 8/26/14 2/27/15 1/28/16
s 1
f 18/1/17 17/2/18 19/3/19 20/4/20
s off
f 13/9/21 14/10/22 15/11/23 16/12/24
s 2
f 7/13/25 1/14/26 10/15/27 9/16/28
f 1/14/26 3/17/29 11/18/30 10/15/27
f 3/17/29 5/19/31 12/20/32 11/18/30
f 5/19/31 7/13/25 9/16/28 12/20/32
s off
f 9/29/33 10/30/34 14/31/35 13/32/36
f 10/45/37 11/46/38 15/47/39 14/48/40
f 11/33/41 12/34/42 16/35/43 15/36/44
f 12/49/45 9/50/46 13/51/47 16/52/48
s 1
f 2/5/49 8/6/50 17/2/18 18/1/17
f 8/6/51 6/7/52 19/3/19 17/2/18
f 6/7/53 4/8/54 20/4/20 19/3/19
f 4/8/55 2/5/56 18/1/17 20/4/20
