# This file uses meters as units for non-parametric coordinates.

mtllib checkout counter.mtl
g default
v -698.009730 0.000000 1200.000000
v -621.901392 0.000000 1200.000000
v -698.009730 99.999985 1200.000000
v -621.901392 99.999985 1200.000000
v -698.009730 99.999985 900.000000
v -621.901392 99.999985 900.000000
v -698.009730 0.000000 900.000000
v -621.901392 0.000000 900.000000
v -703.134241 99.999985 1205.070312
v -705.671351 102.537109 1207.607422
v -616.776881 99.999985 1205.070312
v -614.239771 102.537109 1207.607422
v -616.776881 99.999985 894.929688
v -614.239771 102.537109 892.392578
v -703.134241 99.999985 894.929688
v -705.671351 102.537109 892.392578
v -705.671351 107.612366 1207.607422
v -703.134241 110.149490 1205.070312
v -616.776881 110.149490 1205.070312
v -614.239771 107.612366 1207.607422
v -616.776881 110.149490 894.929688
v -614.239771 107.612366 892.392578
v -703.134241 110.149490 894.929688
v -705.671351 107.612366 892.392578
vt 0.582226 0.593010
vt 0.582226 0.000002
vt 0.779895 0.000002
vt 0.779895 0.593010
vt 0.380686 0.593010
vt 0.380686 0.000002
vt 0.578355 0.000002
vt 0.578355 0.593010
vt 0.965381 0.831955
vt 0.983024 0.209123
vt 0.993052 0.209407
vt 0.975409 0.832240
vt 0.958434 0.826742
vt 0.975793 0.213935
vt 0.982641 0.827427
vt 1.000000 0.214621
vt 0.934025 0.903509
vt 0.952370 0.280696
vt 0.962398 0.280992
vt 0.944053 0.903804
vt 0.945133 0.285501
vt 0.927083 0.898287
vt 0.969340 0.286214
vt 0.951290 0.899000
vt 0.783766 0.000002
vt 0.934209 0.000002
vt 0.934209 0.593010
vt 0.783766 0.593010
vt 0.005226 0.012359
vt 0.175851 0.007240
vt 0.194235 0.620016
vt 0.023609 0.625135
vt 0.000000 0.005420
vt 0.180651 0.000000
vt 0.199460 0.626955
vt 0.018809 0.632375
vt 0.219354 0.612022
vt 0.369786 0.610259
vt 0.380033 0.620162
vt 0.209342 0.622163
vt 0.362838 0.017292
vt 0.372849 0.007152
vt 0.204411 0.629313
vt 0.385130 0.627196
vt 0.212405 0.019055
vt 0.202159 0.009152
vt 0.377781 0.000001
vt 0.197061 0.002119
vt 0.734501 0.593010
vt 0.884943 0.593010
vt 0.884943 0.790679
vt 0.734501 0.790679
vt 0.582226 0.593010
vt 0.732669 0.593010
vt 0.732669 0.790679
vt 0.582226 0.790679
vt 0.183625 0.180734
vt 0.183625 0.000002
vt 0.193657 0.000002
vt 0.193657 0.180734
vt 0.946072 0.000002
vt 0.946072 0.180734
vt 0.936040 0.180734
vt 0.936040 0.000002
vn 0.000000 0.000000 1.000000
vn 0.000000 0.000000 1.000000
vn 0.000000 0.000000 1.000000
vn 0.000000 0.000000 1.000000
vn 0.000000 0.000000 -1.000000
vn 0.000000 0.000000 -1.000000
vn 0.000000 0.000000 -1.000000
vn 0.000000 0.000000 -1.000000
vn 0.000000 -1.000000 0.000000
vn 0.000000 -1.000000 0.000000
vn 0.000000 -1.000000 0.000000
vn 0.000000 -1.000000 0.000000
vn 1.000000 0.000000 0.000000
vn 1.000000 0.000000 0.000000
vn 1.000000 0.000000 0.000000
vn 1.000000 0.000000 0.000000
vn -1.000000 0.000000 0.000000
vn -1.000000 0.000000 0.000000
vn -1.000000 0.000000 0.000000
vn -1.000000 0.000000 0.000000
vn -0.707109 -0.707104 0.000000
vn -0.707109 -0.707104 0.000000
vn -0.707109 -0.707104 0.000000
vn -0.707109 -0.707104 0.000000
vn 0.000000 -0.707104 0.707109
vn 0.000000 -0.707104 0.707109
vn 0.000000 -0.707104 0.707109
vn 0.000000 -0.707104 0.707109
vn 0.707109 -0.707104 0.000000
vn 0.707109 -0.707104 0.000000
vn 0.707109 -0.707104 0.000000
vn 0.707109 -0.707104 0.000000
vn 0.000000 -0.707104 -0.707109
vn 0.000000 -0.707104 -0.707109
vn 0.000000 -0.707104 -0.707109
vn 0.000000 -0.707104 -0.707109
vn -0.707109 0.707104 0.000000
vn -0.707109 0.707104 0.000000
vn -0.707109 0.707104 0.000000
vn -0.707109 0.707104 0.000000
vn 0.000000 0.707106 0.707108
vn 0.000000 0.707106 0.707108
vn 0.000000 0.707106 0.707108
vn 0.000000 0.707106 0.707108
vn 0.707109 0.707104 0.000000
vn 0.707109 0.707104 0.000000
vn 0.707109 0.707104 0.000000
vn 0.707109 0.707104 0.000000
vn 0.000000 0.707106 -0.707108
vn 0.000000 0.707106 -0.707108
vn 0.000000 0.707106 -0.707108
vn 0.000000 0.707106 -0.707108
vn 0.000000 1.000000 0.000000
vn 0.000000 1.000000 0.000000
vn 0.000000 1.000000 0.000000
vn 0.000000 1.000000 0.000000
vn 0.000000 -1.000000 -0.000000
vn 0.000000 -1.000000 -0.000000
vn 0.000000 -1.000000 -0.000000
vn 0.000000 -1.000000 -0.000000
vn 0.000000 -1.000000 0.000000
vn 0.000000 -1.000000 0.000000
vn 0.000000 -1.000000 0.000000
vn 0.000000 -1.000000 0.000000
vn 0.000000 0.000000 1.000000
vn 0.000000 0.000000 1.000000
vn 0.000000 0.000000 1.000000
vn 0.000000 0.000000 1.000000
vn 1.000000 0.000000 0.000000
vn 1.000000 0.000000 0.000000
vn 1.000000 0.000000 0.000000
vn 1.000000 0.000000 0.000000
vn 0.000000 0.000000 -1.000000
vn 0.000000 0.000000 -1.000000
vn 0.000000 0.000000 -1.000000
vn 0.000000 0.000000 -1.000000
vn -1.000000 0.000000 0.000000
vn -1.000000 0.000000 0.000000
vn -1.000000 0.000000 0.000000
vn -1.000000 0.000000 0.000000
s off
g Checkout_COunter
usemtl initialShadingGroup
f 1/49/1 2/50/2 4/51/3 3/52/4
f 5/53/5 6/54/6 8/55/7 7/56/8
f 7/25/9 8/26/10 2/27/11 1/28/12
f 2/1/13 8/2/14 6/3/15 4/4/16
f 7/5/17 1/6/18 3/7/19 5/8/20
f 9/21/21 10/18/22 16/17/23 15/22/24
f 10/43/25 9/40/26 11/39/27 12/44/28
f 12/9/29 11/13/30 13/14/31 14/10/32
f 14/47/33 13/42/34 15/46/35 16/48/36
f 17/19/37 18/23/38 23/24/39 24/20/40
f 18/29/41 17/33/42 20/34/43 19/30/44
f 19/15/45 20/12/46 22/11/47 21/16/48
f 21/31/49 22/35/50 24/36/51 23/32/52
f 18/29/53 19/30/54 21/31/55 23/32/56
s 1
f 3/37/57 4/38/58 11/39/59 9/40/60
f 4/38/58 6/41/61 13/42/62 11/39/59
f 6/41/61 5/45/63 15/46/64 13/42/62
f 5/45/63 3/37/57 9/40/60 15/46/64
s off
f 10/57/65 12/58/66 20/59/67 17/60/68
f 12/9/69 14/10/70 22/11/71 20/12/72
f 14/61/73 16/62/74 24/63/75 22/64/76
f 16/17/77 10/18/78 17/19/79 24/20/80
