# This file uses meters as units for non-parametric coordinates.

mtllib chair.mtl
g default
v -466.595275 51.572712 -318.503898
v -466.595275 57.771550 -318.503898
v -466.595275 57.771550 -369.989009
v -466.595275 51.572712 -369.989009
v -432.271879 51.572712 -369.989009
v -432.271879 51.572712 -318.503898
v -449.433561 51.572712 -369.989009
v -449.433561 51.572712 -318.503898
v -466.595275 51.572712 -352.827295
v -449.433561 51.572712 -352.827295
v -432.271879 51.572712 -352.827295
v -415.110164 51.572712 -352.827295
v -432.271879 57.771550 -352.827295
v -449.433561 57.771550 -352.827295
v -466.595275 51.572712 -335.665613
v -449.433561 51.572712 -335.665613
v -432.271879 51.572712 -335.665613
v -415.110164 51.572712 -335.665613
v -432.271879 57.771550 -335.665613
v -449.433561 57.771550 -335.665613
v -462.595274 51.572712 -331.665612
v -453.433562 51.572712 -331.665612
v -453.433562 51.572712 -322.503900
v -462.595274 51.572712 -322.503900
v -428.271878 51.572712 -331.665612
v -428.271878 51.572712 -322.503900
v -419.110166 51.572712 -331.665612
v -419.110166 51.572712 -322.503900
v -462.595274 51.572712 -365.989007
v -453.433562 51.572712 -365.989007
v -453.433562 51.572712 -356.827296
v -462.595274 51.572712 -356.827296
v -428.271878 51.572712 -356.827296
v -419.110166 51.572712 -356.827296
v -428.271878 51.572712 -365.989007
v -419.110166 51.572712 -365.989007
v -461.195280 0.000004 -330.265618
v -454.833556 0.000004 -330.265618
v -454.833556 0.000004 -323.903894
v -461.195280 0.000004 -323.903894
v -426.871884 0.000004 -330.265618
v -426.871884 0.000004 -323.903894
v -420.510160 0.000004 -330.265618
v -420.510160 0.000004 -323.903894
v -461.195280 0.000004 -364.589014
v -454.833556 0.000004 -364.589014
v -454.833556 0.000004 -358.227290
v -461.195280 0.000004 -358.227290
v -426.871884 0.000004 -358.227290
v -420.510160 0.000004 -358.227290
v -426.871884 0.000004 -364.589014
v -420.510160 0.000004 -364.589014
v -463.723203 57.771550 -352.827295
v -463.723203 57.771550 -335.665613
v -466.595275 118.745274 -352.828149
v -466.595275 118.745274 -335.664758
v -466.595275 113.719227 -364.962945
v -466.595275 101.585278 -369.989009
v -466.595275 101.585278 -318.503898
v -466.595275 113.719227 -323.529949
v -415.110164 51.572712 -322.503503
v -419.109769 51.572712 -318.503898
v -419.109769 51.572712 -369.989009
v -415.110164 51.572712 -365.989404
v -432.271879 56.335659 -369.989009
v -432.271879 57.771550 -368.553125
v -419.704526 57.771550 -368.553125
v -419.109769 56.335659 -369.989009
v -432.271879 56.335659 -318.503898
v -432.271879 57.771550 -319.939798
v -419.704526 57.771550 -319.939798
v -419.109769 56.335659 -318.503898
v -449.433561 57.771550 -368.553125
v -449.433561 56.335659 -369.989009
v -449.433561 56.335659 -318.503898
v -449.433561 57.771550 -319.939798
v -415.110164 56.335659 -352.827295
v -416.546049 57.771550 -352.827295
v -416.546049 57.771550 -365.394647
v -415.110164 56.335659 -365.989404
v -415.110164 56.335659 -335.665613
v -416.546049 57.771550 -335.665613
v -463.723203 57.771550 -368.553125
v -465.159086 56.335659 -369.989009
v -465.159086 56.335659 -318.503898
v -463.723203 57.771550 -319.939798
v -465.159086 101.585278 -369.989009
v -463.723203 101.299664 -368.553125
v -465.159086 118.745274 -352.828149
v -463.723203 117.309384 -352.542566
v -465.159086 118.745274 -335.664758
v -463.723203 117.309384 -335.950342
v -465.159086 101.585278 -318.503898
v -463.723203 101.299664 -319.939798
v -465.159086 113.719227 -364.962945
v -463.723203 112.620221 -363.863977
v -465.159086 113.719227 -323.529949
v -463.723203 112.620221 -324.628915
v -416.546049 57.771550 -323.098276
v -415.110164 56.335659 -322.503503
v -463.723203 101.299662 -352.619130
v -463.723203 101.299662 -335.873778
v -463.723203 112.620217 -352.564991
v -463.723203 112.620217 -335.927916
v -466.595275 57.771550 -335.665534
v -466.595275 57.771550 -352.827373
v -466.595275 101.585257 -352.827931
v -466.595275 101.585257 -335.664977
v -466.595275 113.719225 -335.664822
v -466.595275 113.719225 -352.828085
vt 0.864224 0.762823
vt 0.810646 0.762821
vt 0.821645 0.479752
vt 0.857278 0.506596
vt 0.919153 0.912681
vt 0.870235 0.912680
vt 0.877718 0.637214
vt 0.912395 0.611093
vt 0.088548 0.954045
vt 0.035982 0.954044
vt 0.046773 0.676320
vt 0.081019 0.676321
vt 0.333046 0.667181
vt 0.283508 0.640337
vt 0.290468 0.384110
vt 0.326102 0.357268
vt 0.734865 0.939666
vt 0.682299 0.939665
vt 0.693090 0.661941
vt 0.727336 0.661941
vt 0.198559 0.954046
vt 0.145993 0.954044
vt 0.153537 0.676320
vt 0.187783 0.676321
vt 0.285652 0.953485
vt 0.233086 0.953484
vt 0.243877 0.675759
vt 0.278123 0.675760
vt 0.433345 0.682489
vt 0.379768 0.682488
vt 0.390767 0.399418
vt 0.426399 0.426262
vt 0.945869 0.849687
vt 0.921454 0.843549
vt 0.920817 0.767850
vt 0.945202 0.776041
vt 0.921849 0.878868
vt 0.946227 0.881333
vt 0.920657 0.673501
vt 0.944992 0.680041
vt 0.957896 0.775965
vt 0.958531 0.846523
vt 0.921785 0.605580
vt 0.945621 0.607253
vt 0.957692 0.680052
vt 0.951794 0.577464
vt 0.926479 0.576207
vt 0.958124 0.609254
vt 0.964018 0.583605
vt 0.426039 0.278244
vt 0.337387 0.279423
vt 0.331875 0.046849
vt 0.421834 0.045618
vt 0.368302 0.340248
vt 0.427110 0.339651
vt 0.320178 0.039681
vt 0.326083 0.282110
vt 0.521542 0.277016
vt 0.519691 0.044329
vt 0.360366 0.349189
vt 0.522055 0.338424
vt 0.427311 0.365140
vt 0.610193 0.275889
vt 0.609653 0.043226
vt 0.433993 0.375615
vt 0.522510 0.363919
vt 0.580863 0.337505
vt 0.621159 0.035756
vt 0.621562 0.278281
vt 0.516094 0.374594
vt 0.589029 0.346239
vt 0.123702 0.038798
vt 0.123701 0.091719
vt 0.035982 0.070483
vt 0.035982 0.035794
vt 0.219740 0.038798
vt 0.219740 0.091719
vt 0.035982 0.315667
vt 0.132017 0.315667
vt 0.315778 0.038798
vt 0.315778 0.091719
vt 0.228061 0.315667
vt 0.132016 0.383569
vt 0.061672 0.386005
vt 0.313341 0.321548
vt 0.225626 0.383569
vt 0.132016 0.411695
vt 0.287651 0.383569
vt 0.225626 0.409259
vt 0.920657 0.069901
vt 0.957997 0.069901
vt 0.954763 0.104007
vt 0.920657 0.104007
vt 0.838149 0.094670
vt 0.838149 0.060564
vt 0.875489 0.060564
vt 0.872255 0.094670
vt 0.710019 0.320629
vt 0.716368 0.226970
vt 0.805607 0.225041
vt 0.805606 0.320629
vt 0.691599 0.298349
vt 0.696018 0.251740
vt 0.718298 0.137732
vt 0.813886 0.137732
vt 0.836165 0.251740
vt 0.834236 0.300279
vt 0.622710 0.320629
vt 0.643059 0.300279
vt 0.622710 0.233320
vt 0.644989 0.251740
vt 0.622710 0.137732
vt 0.716368 0.035794
vt 0.813886 0.042144
vt 0.907544 0.226970
vt 0.901195 0.129453
vt 0.882775 0.247320
vt 0.882775 0.298349
vt 0.880847 0.320629
vt 0.643059 0.109103
vt 0.691599 0.107173
vt 0.696019 0.060564
vt 0.836165 0.060564
vt 0.834236 0.109103
vt 0.882775 0.107173
vt 0.907544 0.300281
vt 0.622710 0.042144
vt 0.644989 0.060564
vt 0.887197 0.035794
vt 0.887195 0.060564
vt 0.909474 0.062491
vt 0.645629 0.060564
vt 0.682969 0.060564
vt 0.679735 0.094670
vt 0.645629 0.094670
vt 0.954763 0.069901
vt 0.920657 0.069901
vt 0.920657 0.035795
vt 0.957997 0.035795
vt 0.518161 0.586638
vt 0.510921 0.498937
vt 0.605573 0.498612
vt 0.605917 0.594649
vt 0.438192 0.586921
vt 0.444805 0.499170
vt 0.517560 0.418521
vt 0.605242 0.410557
vt 0.694294 0.498287
vt 0.694623 0.594330
vt 0.518478 0.675341
vt 0.614522 0.675003
vt 0.437592 0.418807
vt 0.438509 0.675625
vt 0.605221 0.399170
vt 0.517494 0.400517
vt 0.677670 0.410620
vt 0.694132 0.434008
vt 0.694851 0.658568
vt 0.678764 0.674771
vt 0.614587 0.693005
vt 0.518542 0.693344
vt 0.430190 0.400831
vt 0.431233 0.693653
vt 0.681364 0.399431
vt 0.687961 0.692741
vt 0.710928 0.422169
vt 0.911584 0.113725
vt 0.919155 0.105125
vt 0.919276 0.204311
vt 0.911703 0.210895
vt 0.911490 0.035805
vt 0.919789 0.035795
vt 0.919368 0.280215
vt 0.911788 0.280224
vt 0.856484 0.335613
vt 0.906024 0.308771
vt 0.899063 0.618684
vt 0.863430 0.591840
vt 0.785908 0.919071
vt 0.737305 0.892734
vt 0.744849 0.615009
vt 0.779095 0.615010
vt 0.714386 0.320609
vt 0.763925 0.347453
vt 0.756965 0.603680
vt 0.721330 0.630522
vt 0.143554 0.954045
vt 0.090988 0.954044
vt 0.101779 0.676320
vt 0.136025 0.676321
vt 0.343097 0.682487
vt 0.392015 0.682488
vt 0.389171 0.957954
vt 0.350565 0.957953
vt 0.814346 0.630530
vt 0.764808 0.603686
vt 0.771768 0.347459
vt 0.807402 0.320617
vt 0.340658 0.944899
vt 0.288092 0.944898
vt 0.295635 0.667173
vt 0.329881 0.667174
vt 0.906906 0.300741
vt 0.955823 0.300742
vt 0.948341 0.576208
vt 0.909735 0.576207
vt 0.342053 0.373390
vt 0.427940 0.375617
vt 0.436094 0.399451
vt 0.349251 0.399484
vt 0.333930 0.428149
vt 0.521971 0.375582
vt 0.513836 0.399421
vt 0.341874 0.625940
vt 0.334005 0.626624
vt 0.594088 0.375554
vt 0.587850 0.399393
vt 0.334038 0.713145
vt 0.341908 0.713142
vt 0.035982 0.643665
vt 0.050356 0.650715
vt 0.135562 0.650715
vt 0.135562 0.676320
vt 0.043304 0.676320
vt 0.035982 0.407463
vt 0.043034 0.428532
vt 0.225957 0.650715
vt 0.225957 0.676320
vt 0.043034 0.342975
vt 0.035982 0.336860
vt 0.290585 0.650715
vt 0.290585 0.674102
vn 0.000000 -1.000000 0.000000
vn 0.000000 -1.000000 0.000000
vn 0.000000 -1.000000 0.000000
vn 0.000000 -1.000000 0.000000
vn 0.000000 -1.000000 0.000000
vn 0.000000 -1.000000 0.000000
vn 0.000000 -1.000000 0.000000
vn 0.000000 -1.000000 0.000000
vn 0.000000 -1.000000 -0.000000
vn 0.000000 -1.000000 -0.000000
vn 0.000000 -1.000000 0.000000
vn 0.000000 -1.000000 0.000000
vn 0.000000 -1.000000 0.000000
vn 0.000000 -1.000000 0.000000
vn 0.000000 -1.000000 0.000000
vn 0.000000 -1.000000 0.000000
vn 0.000000 -1.000000 0.000000
vn 0.000000 -1.000000 -0.000000
vn 0.000000 -1.000000 -0.000000
vn 0.000000 -1.000000 -0.000000
vn 0.000000 -1.000000 0.000000
vn 0.000000 -1.000000 0.000000
vn 0.000000 -1.000000 0.000000
vn 0.000000 -1.000000 0.000000
vn 0.000000 -1.000000 -0.000000
vn 0.000000 -1.000000 -0.000000
vn 0.000000 -1.000000 0.000000
vn 0.000000 -1.000000 0.000000
vn 0.000000 1.000000 0.000000
vn 0.000000 1.000000 0.000000
vn 0.000000 1.000000 0.000000
vn 0.000000 1.000000 -0.000000
vn 0.000000 1.000000 0.000000
vn 0.000000 1.000000 0.000000
vn 0.000000 -1.000000 -0.000000
vn 0.000000 -1.000000 -0.000000
vn 0.000000 -1.000000 -0.000000
vn 0.000000 -1.000000 -0.000000
vn 0.000000 -1.000000 -0.000000
vn 0.000000 -1.000000 0.000000
vn 0.000000 -1.000000 0.000001
vn 0.000000 -1.000000 0.000000
vn 0.000000 -1.000000 -0.000000
vn 0.000000 -1.000000 0.000000
vn 0.000000 -1.000000 -0.000000
vn 0.000000 -1.000000 -0.000000
vn 0.000000 -1.000000 -0.000000
vn 0.000000 -1.000000 -0.000000
vn 0.000000 -1.000000 -0.000000
vn 0.000000 -1.000000 0.000000
vn 0.000000 -1.000000 0.000000
vn 0.000000 -1.000000 -0.000000
vn 0.000000 -1.000000 -0.000001
vn 0.000000 -1.000000 -0.000000
vn 0.000000 -0.027136 -0.999632
vn 0.000000 -0.027136 -0.999632
vn 0.000000 -0.027136 -0.999632
vn 0.000000 -0.027136 -0.999632
vn 0.999632 -0.027136 0.000000
vn 0.999632 -0.027136 0.000000
vn 0.999632 -0.027136 0.000000
vn 0.999632 -0.027136 0.000000
vn 0.000000 -0.027136 0.999632
vn 0.000000 -0.027136 0.999632
vn 0.000000 -0.027136 0.999632
vn 0.000000 -0.027136 0.999632
vn -0.999632 -0.027136 0.000000
vn -0.999632 -0.027136 0.000000
vn -0.999632 -0.027136 0.000000
vn -0.999632 -0.027136 0.000000
vn -0.999632 -0.027136 0.000000
vn -0.999632 -0.027136 0.000000
vn -0.999632 -0.027136 0.000000
vn -0.999632 -0.027136 0.000000
vn 0.000000 -0.027136 -0.999632
vn 0.000000 -0.027136 -0.999632
vn 0.000000 -0.027136 -0.999632
vn 0.000000 -0.027136 -0.999632
vn 0.999632 -0.027136 0.000000
vn 0.999632 -0.027136 0.000000
vn 0.999632 -0.027136 0.000000
vn 0.999632 -0.027136 0.000000
vn 0.000000 -0.027136 0.999632
vn 0.000000 -0.027136 0.999632
vn 0.000000 -0.027136 0.999632
vn 0.000000 -0.027136 0.999632
vn 0.000000 -0.027136 -0.999632
vn 0.000000 -0.027136 -0.999632
vn 0.000000 -0.027136 -0.999632
vn 0.000000 -0.027136 -0.999632
vn 0.999632 -0.027136 0.000000
vn 0.999632 -0.027136 0.000000
vn 0.999632 -0.027136 0.000000
vn 0.999632 -0.027136 0.000000
vn 0.000000 -0.027136 0.999632
vn 0.000000 -0.027136 0.999632
vn 0.000000 -0.027136 0.999632
vn 0.000000 -0.027136 0.999632
vn -0.999632 -0.027136 0.000000
vn -0.999632 -0.027136 0.000000
vn -0.999632 -0.027136 0.000000
vn -0.999632 -0.027136 0.000000
vn 0.000000 -0.027136 0.999632
vn 0.000000 -0.027136 0.999632
vn 0.000000 -0.027136 0.999632
vn 0.000000 -0.027136 0.999632
vn -0.999632 -0.027136 0.000000
vn -0.999632 -0.027136 0.000000
vn -0.999632 -0.027136 0.000000
vn -0.999632 -0.027136 0.000000
vn 0.000000 -0.027136 -0.999632
vn 0.000000 -0.027136 -0.999632
vn 0.000000 -0.027136 -0.999632
vn 0.000000 -0.027136 -0.999632
vn 0.999632 -0.027136 0.000000
vn 0.999632 -0.027136 0.000000
vn 0.999632 -0.027136 0.000000
vn 0.999632 -0.027136 0.000000
vn 0.000000 0.707105 -0.707108
vn 0.000000 0.707105 -0.707108
vn 0.000000 0.707105 -0.707108
vn 0.000000 0.707105 -0.707108
vn 0.000000 0.707105 -0.707108
vn 0.000000 0.707105 -0.707108
vn 0.500002 0.707105 -0.500001
vn 0.500002 0.707105 -0.500001
vn 0.500002 0.707105 -0.500001
vn 0.500002 0.707105 -0.500001
vn 0.000000 0.707109 0.707104
vn 0.000000 0.707109 0.707104
vn 0.000000 0.707109 0.707104
vn 0.000000 0.707109 0.707104
vn 0.000000 0.707109 0.707105
vn 0.000000 0.707109 0.707105
vn 0.500000 0.707107 0.500000
vn 0.500000 0.707107 0.500000
vn 0.500000 0.707107 0.500000
vn 0.500000 0.707107 0.500000
vn 0.000000 0.707105 -0.707108
vn 0.000000 0.707105 -0.707108
vn 0.000000 0.707109 0.707105
vn 0.000000 0.707109 0.707105
vn 0.707108 0.707105 0.000000
vn 0.707108 0.707105 0.000000
vn 0.707108 0.707105 0.000000
vn 0.707108 0.707105 0.000000
vn 0.707108 0.707105 0.000000
vn 0.707108 0.707105 0.000000
vn 0.707108 0.707105 0.000000
vn 0.707108 0.707105 0.000000
vn 0.707107 0.000000 -0.707106
vn 0.707107 0.000000 -0.707106
vn 0.711808 0.060573 -0.699758
vn 0.711808 0.060573 -0.699758
vn 0.707111 0.000000 0.707103
vn 0.707111 0.000000 0.707103
vn 0.711811 0.060573 0.699755
vn 0.711811 0.060573 0.699755
vn 0.707108 0.270599 -0.653280
vn 0.707108 0.270599 -0.653280
vn 0.713795 0.690471 -0.117249
vn 0.713795 0.690471 -0.117250
vn 0.707108 0.653287 -0.270582
vn 0.707108 0.653287 -0.270582
vn 0.713795 0.690471 0.117249
vn 0.713795 0.690471 0.117250
vn 0.707108 0.653287 0.270581
vn 0.707108 0.653287 0.270581
vn 0.707109 0.270597 0.653280
vn 0.707109 0.270597 0.653280
vn 0.000000 0.000000 1.000000
vn 0.000000 0.000000 1.000000
vn 0.000000 0.000000 1.000000
vn 0.000000 0.000000 1.000000
vn 0.000000 0.000000 1.000000
vn 0.000000 1.000000 0.000000
vn 0.000000 1.000000 0.000000
vn 0.000000 0.000000 -1.000000
vn 0.000000 0.000000 -1.000000
vn 0.000000 0.000000 -1.000000
vn 0.000000 0.000000 -1.000000
vn 0.000000 0.000000 -1.000000
vn 1.000000 0.000000 0.000000
vn 1.000000 0.000000 0.000000
vn 1.000000 0.000000 0.000000
vn 1.000000 0.000000 0.000000
vn 0.000000 0.000000 -1.000000
vn 0.000000 0.000000 -1.000000
vn 0.000000 0.000000 -1.000000
vn 0.000000 0.000000 -1.000000
vn 0.000000 0.000000 1.000000
vn 0.000000 0.000000 1.000000
vn 0.000000 0.000000 1.000000
vn 0.000000 0.000000 1.000000
vn 0.000000 1.000000 0.000000
vn 0.000000 1.000000 0.000000
vn 0.000000 1.000000 0.000000
vn 1.000000 0.000000 0.000000
vn 1.000000 0.000000 0.000000
vn 1.000000 0.000000 0.000000
vn 1.000000 0.000000 0.000000
vn 0.000000 1.000000 -0.000000
vn 0.000000 1.000000 -0.000000
vn 0.000000 1.000000 0.000000
vn 0.000000 1.000000 0.000000
vn 0.000000 1.000000 0.000000
vn 0.000000 1.000000 0.000000
vn 0.000000 1.000000 0.000000
vn 0.000000 0.985603 0.169078
vn 0.000000 0.985603 0.169078
vn 0.000000 0.985603 -0.169078
vn 0.000000 0.985603 -0.169078
vn 0.000000 0.088350 -0.996090
vn 0.000000 0.088350 -0.996090
vn 0.000000 0.088350 0.996090
vn 0.000000 0.088350 0.996090
vn 0.000000 0.923889 -0.382660
vn 0.000000 0.923889 -0.382660
vn 0.000000 0.382684 -0.923879
vn 0.000000 0.382684 -0.923879
vn 0.000000 0.923889 0.382660
vn 0.000000 0.923889 0.382660
vn 0.000000 0.382684 0.923879
vn 0.000000 0.382684 0.923879
vn 1.000000 0.000000 0.000000
vn 1.000000 0.000000 0.000000
vn 1.000000 -0.000000 0.000000
vn 1.000000 -0.000000 0.000000
vn 0.707107 0.000000 0.707107
vn 0.707107 0.000000 0.707107
vn 0.707107 0.000000 0.707107
vn 0.707107 0.000000 0.707107
vn 0.707107 0.000000 -0.707107
vn 0.707107 0.000000 -0.707107
vn 0.707107 0.000000 -0.707107
vn 0.707107 0.000000 -0.707107
vn 0.000000 -1.000000 0.000000
vn 0.000000 -1.000000 0.000001
vn 1.000000 0.000000 0.000000
vn 1.000000 -0.000000 0.000000
vn 1.000000 0.000000 0.000000
vn 1.000000 0.000000 0.000000
vn 1.000000 0.000000 0.000000
vn 1.000000 -0.000000 0.000000
vn 1.000000 0.000000 0.000000
vn 1.000000 0.000000 0.000000
vn 1.000000 0.000000 0.000000
vn 1.000000 0.000000 0.000000
vn -1.000000 -0.000000 0.000000
vn -1.000000 -0.000000 0.000000
vn -1.000000 -0.000000 0.000000
vn -1.000000 -0.000000 0.000000
vn -1.000000 -0.000000 0.000000
vn -1.000000 -0.000000 0.000000
vn -1.000000 0.000000 0.000000
vn -1.000000 0.000000 0.000000
vn -1.000000 -0.000000 0.000000
vn -1.000000 -0.000000 0.000000
vn -1.000000 -0.000001 0.000000
vn -1.000000 -0.000001 0.000000
vn -1.000000 0.000000 0.000000
vn -1.000000 0.000000 0.000000
vn -1.000000 0.000000 0.000000
vn -1.000000 0.000000 0.000000
vn -1.000000 -0.000000 0.000000
vn -1.000000 -0.000000 0.000000
vn -1.000000 -0.000000 0.000000
vn -1.000000 0.000000 0.000000
vn -1.000000 0.000000 0.000000
vn -1.000000 0.000000 0.000000
s off
g Chair
usemtl initialShadingGroup
f 37/90/1 38/91/2 39/92/3 40/93/4
f 42/94/5 41/95/6 43/96/7 44/97/8
s 1
f 8/98/9 16/99/10 17/100/11 6/101/12
s off
f 45/132/13 46/133/14 47/134/15 48/135/16
s 1
f 11/105/17 10/104/18 7/113/19 5/114/20
s off
f 50/136/21 49/137/22 51/138/23 52/139/24
s 1
f 9/112/25 10/104/18 16/99/10 15/110/26
f 17/100/11 16/99/10 10/104/18 11/105/17
f 18/115/27 17/100/11 11/105/17 12/116/28
s 3
f 14/140/29 20/141/30 19/142/31 13/143/32
f 53/144/33 54/145/34 20/141/30 14/140/29
s 1
f 15/110/26 16/99/10 22/103/35 21/111/36
f 16/99/10 8/98/9 23/102/37 22/103/35
f 8/98/9 1/108/38 24/109/39 23/102/37
f 1/108/38 15/110/26 21/111/36 24/109/39
f 6/101/12 17/100/11 25/106/40 26/107/41
f 17/100/11 18/115/27 27/117/42 25/106/40
f 18/115/27 61/126/43 28/118/44 27/117/42
f 4/127/45 7/113/19 30/122/46 29/128/47
f 7/113/19 10/104/18 31/121/48 30/122/46
f 10/104/18 9/112/25 32/120/49 31/121/48
f 9/112/25 4/127/45 29/128/47 32/120/49
f 12/116/28 11/105/17 33/124/50 34/125/51
f 11/105/17 5/114/20 35/123/52 33/124/50
f 5/114/20 63/129/53 36/130/54 35/123/52
s off
f 21/175/55 22/176/56 38/177/57 37/178/58
f 22/1/59 23/2/60 39/3/61 38/4/62
f 23/179/63 24/180/64 40/181/65 39/182/66
f 24/5/67 21/6/68 37/7/69 40/8/70
f 26/9/71 25/10/72 41/11/73 42/12/74
f 25/183/75 27/184/76 43/185/77 41/186/78
f 27/13/79 28/14/80 44/15/81 43/16/82
f 28/187/83 26/188/84 42/189/85 44/190/86
f 29/191/87 30/192/88 46/193/89 45/194/90
f 30/17/91 31/18/92 47/19/93 46/20/94
f 31/195/95 32/196/96 48/197/97 47/198/98
f 32/21/99 29/22/100 45/23/101 48/24/102
f 34/199/103 33/200/104 49/201/105 50/202/106
f 33/25/107 35/26/108 51/27/109 49/28/110
f 35/203/111 36/204/112 52/205/113 51/206/114
f 36/29/115 34/30/116 50/31/117 52/32/118
s 4
f 65/160/119 66/151/120 67/159/121 68/165/122
f 66/151/120 65/160/119 74/161/123 73/150/124
s off
f 68/46/125 67/49/126 79/48/127 80/44/128
s 5
f 69/154/129 70/147/130 76/146/131 75/155/132
f 70/147/130 69/154/129 72/164/133 71/156/134
s off
f 71/156/135 72/164/136 100/166/137 99/157/138
s 4
f 73/150/124 74/161/123 84/163/139 83/153/140
s 5
f 75/155/132 76/146/131 86/152/141 85/162/142
s 6
f 77/40/143 78/45/144 82/41/145 81/36/146
f 78/45/144 77/40/143 80/44/147 79/48/148
f 81/36/146 82/41/145 99/42/149 100/33/150
s 7
f 83/64/151 84/68/152 87/69/153 88/63/154
s 8
f 85/56/155 86/52/156 94/51/157 93/57/158
s 7
f 88/63/154 87/69/153 95/71/159 96/67/160
s 9
f 89/70/161 90/66/162 96/67/163 95/71/164
f 90/66/162 89/70/161 91/65/165 92/62/166
f 92/62/166 91/65/165 97/60/167 98/54/168
s 8
f 93/57/158 94/51/157 98/54/169 97/60/170
s 10
f 1/207/171 8/208/172 75/209/173 85/210/174 2/211/175
s 3
f 54/145/34 86/152/176 76/146/177 20/141/30
s 11
f 3/220/178 84/221/179 74/222/180 7/223/181 4/224/182
s 12
f 100/33/183 61/34/184 18/35/185 81/36/186
s 11
f 65/227/187 68/231/188 63/232/189 5/228/190
s 10
f 69/213/191 6/212/192 62/216/193 72/217/194
s 3
f 19/142/31 71/156/195 99/157/196
s 11
f 74/222/180 65/227/187 5/228/190 7/223/181
s 10
f 75/209/173 8/208/172 6/212/192 69/213/191
s 3
f 20/141/30 76/146/177 70/147/197 19/142/31
s 12
f 77/40/198 12/39/199 64/43/200 80/44/201
s 3
f 67/159/202 13/143/32 79/158/203
f 73/150/204 14/140/29 13/143/32 66/151/205
f 83/153/206 53/144/33 14/140/29 73/150/204
s 12
f 81/36/186 18/35/185 12/39/199 77/40/198
s 3
f 13/143/32 19/142/31 82/148/207 78/149/208
s 15
f 56/167/209 91/168/210 89/169/211 55/170/212
s 11
f 84/221/179 3/220/178 58/225/213 87/226/214
s 10
f 2/211/175 85/210/174 93/214/215 59/215/216
s 15
f 89/169/211 95/173/217 57/174/218 55/170/212
s 11
f 95/229/219 87/226/214 58/225/213 57/230/220
s 15
f 56/167/209 60/171/221 97/172/222 91/168/210
s 10
f 60/218/223 59/215/216 93/214/215 97/219/224
s 16
f 102/50/225 94/51/226 86/52/227 54/53/228
s off
f 62/37/229 61/34/230 100/33/231 72/38/232
f 68/46/233 80/44/234 64/43/235 63/47/236
s 3
f 66/151/205 13/143/32 67/159/202
f 79/158/203 13/143/32 78/149/208
f 19/142/31 99/157/196 82/148/207
f 19/142/31 70/147/197 71/156/195
s 1
f 36/130/54 64/131/237 12/116/28 34/125/51
f 64/131/237 36/130/54 63/129/53
f 62/119/238 28/118/44 61/126/43
f 28/118/44 62/119/238 6/101/12 26/107/41
s 16
f 88/63/239 101/58/240 53/59/241 83/64/242
f 101/58/240 102/50/225 54/53/228 53/59/241
f 96/67/243 103/61/244 101/58/240 88/63/239
f 103/61/244 104/55/245 102/50/225 101/58/240
f 98/54/246 94/51/226 102/50/225 104/55/245
f 90/66/247 103/61/244 96/67/243
f 92/62/248 104/55/245 103/61/244 90/66/247
f 98/54/246 104/55/245 92/62/248
s 18
f 9/72/249 106/73/250 3/74/251 4/75/252
s 19
f 58/78/253 107/79/254 110/83/255 57/84/256
s 18
f 105/77/257 15/76/258 1/80/259 2/81/260
s 19
f 60/88/261 109/86/262 108/82/263 59/85/264
s 18
f 9/72/249 15/76/258 105/77/257 106/73/250
s 19
f 109/86/262 110/83/255 107/79/254 108/82/263
f 58/78/253 3/74/265 106/73/266 107/79/254
f 108/82/263 107/79/254 106/73/266 105/77/267
f 59/85/264 108/82/263 105/77/267 2/81/268
f 56/89/269 109/86/262 60/88/261
f 55/87/270 110/83/255 109/86/262 56/89/269
f 57/84/256 110/83/255 55/87/270
